<svg width="123" height="124" viewBox="0 0 123 124" fill="none" xmlns="http://www.w3.org/2000/svg">
<path d="M122.824 61.8543C122.824 78.8043 115.954 94.1418 104.854 105.249C93.7463 116.349 78.4088 123.219 61.4588 123.219H44.3138C44.0513 123.077 35.5762 118.359 22.2487 81.0693C14.8837 60.4668 0.09375 0.489258 0.09375 0.489258H61.4588C95.3513 0.489258 122.824 27.9618 122.824 61.8543Z" fill="#01D387"/>
<path d="M39.4163 90.1143C29.8988 104.064 43.9838 122.777 44.3138 123.212C44.0513 123.077 35.5762 118.359 22.2487 81.0693C14.8837 60.4668 0.09375 0.489258 0.09375 0.489258L71.8088 77.7468C71.8088 77.7468 50.2088 74.2818 39.4163 90.1143Z" fill="white"/>
</svg>
