<svg width="45" height="46" viewBox="0 0 45 46" fill="none" xmlns="http://www.w3.org/2000/svg">
<path d="M44.5017 22.9986C44.5017 29.142 42.0107 34.706 37.9858 38.7336C33.9583 42.7585 28.3942 45.2495 22.2509 45.2495H16.0341C15.9389 45.1978 12.8659 43.4873 8.03337 29.966C5.36283 22.4955 0 0.750488 0 0.750488H22.2509C34.5402 0.750488 44.5017 10.712 44.5017 22.9986Z" fill="#004862"/>
<path d="M14.2583 33.2471C10.8073 38.3054 15.9145 45.0905 16.0341 45.2483C15.9389 45.1993 12.8659 43.4887 8.03338 29.9674C5.36284 22.497 0 0.751953 0 0.751953L26.0038 28.7627C26.0038 28.7627 18.1744 27.5063 14.2583 33.2471Z" fill="#00D588"/>
</svg>
