<svg width="820" height="1080" viewBox="0 0 820 1080" fill="none" xmlns="http://www.w3.org/2000/svg">
<rect width="820" height="1080" fill="#004862"/>
<mask id="mask0_141_19" style="mask-type:luminance" maskUnits="userSpaceOnUse" x="0" y="0" width="820" height="1080">
<path d="M820 0H0V1080H820V0Z" fill="white"/>
</mask>
<g mask="url(#mask0_141_19)">
<path d="M36.31 70.5499C36.08 70.4299 28.49 66.1999 16.55 32.8099C9.95997 14.3699 -3.28003 -39.3301 -3.28003 -39.3301L60.93 29.8399C60.93 29.8399 41.59 26.7399 31.93 40.9099C23.36 53.4699 36.17 70.3499 36.32 70.5499H36.31Z" fill="#01D387" fill-opacity="0.1"/>
<path d="M75.79 -39.3301C76.02 -39.2101 83.61 -34.9801 95.55 -1.59008C102.14 16.8599 115.38 70.5499 115.38 70.5499L51.17 1.37992C51.17 1.37992 70.51 4.47992 80.17 -9.69008C88.75 -22.2501 75.93 -39.1401 75.79 -39.3301Z" fill="#01D387" fill-opacity="0.1"/>
<path d="M146.08 70.5499C145.85 70.4299 138.26 66.1999 126.32 32.8099C119.73 14.3699 106.49 -39.3301 106.49 -39.3301L170.7 29.8399C170.7 29.8399 151.36 26.7399 141.7 40.9099C133.13 53.4699 145.94 70.3499 146.09 70.5499H146.08Z" fill="#01D387" fill-opacity="0.1"/>
<path d="M185.56 -39.3301C185.79 -39.2101 193.38 -34.9801 205.32 -1.59008C211.91 16.8599 225.15 70.5499 225.15 70.5499L160.94 1.37992C160.94 1.37992 180.28 4.47992 189.94 -9.69008C198.51 -22.2501 185.7 -39.1301 185.55 -39.3301H185.56Z" fill="#01D387" fill-opacity="0.1"/>
<path d="M255.85 70.5499C255.62 70.4299 248.03 66.1999 236.09 32.8099C229.5 14.3699 216.25 -39.3301 216.25 -39.3301L280.46 29.8399C280.46 29.8399 261.12 26.7399 251.46 40.9099C242.89 53.4699 255.7 70.3499 255.85 70.5499Z" fill="#01D387" fill-opacity="0.1"/>
<path d="M295.32 -39.3301C295.55 -39.2101 303.14 -34.9801 315.08 -1.59008C321.67 16.8599 334.91 70.5499 334.91 70.5499L270.7 1.37992C270.7 1.37992 290.04 4.47992 299.7 -9.69008C308.27 -22.2501 295.46 -39.1301 295.31 -39.3301L295.32 -39.3301Z" fill="#01D387" fill-opacity="0.1"/>
<path d="M365.61 70.5499C365.38 70.4299 357.79 66.1999 345.85 32.8099C339.26 14.3699 326.02 -39.3301 326.02 -39.3301L390.23 29.8399C390.23 29.8399 370.89 26.7399 361.23 40.9099C352.66 53.4699 365.47 70.3499 365.62 70.5499H365.61Z" fill="#01D387" fill-opacity="0.1"/>
<path d="M405.09 -39.3301C405.32 -39.2101 412.91 -34.9801 424.85 -1.59008C431.44 16.8599 444.68 70.5499 444.68 70.5499L380.47 1.37992C380.47 1.37992 399.81 4.47992 409.47 -9.69008C418.04 -22.2501 405.23 -39.1301 405.08 -39.3301L405.09 -39.3301Z" fill="#01D387" fill-opacity="0.1"/>
<path d="M475.38 70.5499C475.15 70.4299 467.56 66.1999 455.62 32.8099C449.03 14.3699 435.79 -39.3301 435.79 -39.3301L500 29.8399C500 29.8399 480.66 26.7399 471 40.9099C462.43 53.4699 475.24 70.3499 475.39 70.5499H475.38Z" fill="#01D387" fill-opacity="0.1"/>
<path d="M514.86 -39.3301C515.09 -39.2101 522.68 -34.9801 534.62 -1.59008C541.21 16.8599 554.45 70.5499 554.45 70.5499L490.24 1.37992C490.24 1.37992 509.58 4.47992 519.24 -9.69008C527.81 -22.2501 515 -39.1301 514.85 -39.3301L514.86 -39.3301Z" fill="#01D387" fill-opacity="0.1"/>
<path d="M585.15 70.5499C584.92 70.4299 577.33 66.1999 565.39 32.8099C558.8 14.3699 545.56 -39.3301 545.56 -39.3301L609.77 29.8399C609.77 29.8399 590.43 26.7399 580.77 40.9099C572.2 53.4699 585.01 70.3499 585.16 70.5499H585.15Z" fill="#01D387" fill-opacity="0.1"/>
<path d="M624.63 -39.3301C624.86 -39.2101 632.45 -34.9801 644.39 -1.59008C650.98 16.8599 664.22 70.5499 664.22 70.5499L600.01 1.37992C600.01 1.37992 619.35 4.47992 629.01 -9.69008C637.58 -22.2501 624.77 -39.1301 624.62 -39.3301L624.63 -39.3301Z" fill="#01D387" fill-opacity="0.1"/>
<path d="M694.91 70.5499C694.68 70.4299 687.09 66.1999 675.15 32.8099C668.57 14.3699 655.32 -39.3301 655.32 -39.3301L719.53 29.8399C719.53 29.8399 700.19 26.7399 690.53 40.9099C681.96 53.4699 694.77 70.3499 694.92 70.5499H694.91Z" fill="#01D387" fill-opacity="0.1"/>
<path d="M734.39 -39.3301C734.62 -39.2101 742.21 -34.9801 754.15 -1.59008C760.74 16.8599 773.98 70.5499 773.98 70.5499L709.77 1.37992C709.77 1.37992 729.11 4.47992 738.77 -9.69008C747.34 -22.2501 734.53 -39.1301 734.38 -39.3301L734.39 -39.3301Z" fill="#01D387" fill-opacity="0.1"/>
<path d="M804.68 70.5499C804.45 70.4299 796.86 66.1999 784.92 32.8099C778.33 14.3699 765.09 -39.3301 765.09 -39.3301L829.3 29.8399C829.3 29.8399 809.96 26.7399 800.3 40.9099C791.73 53.4699 804.54 70.3499 804.69 70.5499H804.68Z" fill="#01D387" fill-opacity="0.1"/>
<path d="M844.16 -39.3301C844.39 -39.2101 851.98 -34.9801 863.92 -1.59008C870.51 16.8599 883.75 70.5499 883.75 70.5499L819.54 1.37992C819.54 1.37992 838.88 4.47992 848.54 -9.69008C857.11 -22.2501 844.3 -39.1301 844.15 -39.3301L844.16 -39.3301Z" fill="#01D387" fill-opacity="0.1"/>
<path d="M16.31 170.43C16.08 170.31 8.48997 166.08 -3.45003 132.69C-10.04 114.24 -23.28 60.5498 -23.28 60.5498L40.93 129.72C40.93 129.72 21.59 126.62 11.93 140.79C3.35997 153.35 16.17 170.23 16.32 170.43H16.31Z" fill="#01D387" fill-opacity="0.1"/>
<path d="M55.79 60.5498C56.02 60.6698 63.61 64.8998 75.55 98.2898C82.14 116.74 95.38 170.43 95.38 170.43L31.17 101.26C31.17 101.26 50.51 104.36 60.17 90.1898C68.74 77.6298 55.93 60.7498 55.78 60.5498H55.79Z" fill="#01D387" fill-opacity="0.1"/>
<path d="M126.08 170.43C125.85 170.31 118.26 166.08 106.32 132.69C99.73 114.24 86.49 60.5498 86.49 60.5498L150.7 129.72C150.7 129.72 131.36 126.62 121.7 140.79C113.13 153.35 125.94 170.23 126.09 170.43H126.08Z" fill="#01D387" fill-opacity="0.1"/>
<path d="M165.56 60.5498C165.79 60.6698 173.38 64.8998 185.32 98.2898C191.91 116.74 205.15 170.43 205.15 170.43L140.94 101.26C140.94 101.26 160.28 104.36 169.94 90.1898C178.51 77.6298 165.7 60.7498 165.55 60.5498H165.56Z" fill="#01D387" fill-opacity="0.1"/>
<path d="M235.85 170.43C235.62 170.31 228.03 166.08 216.09 132.69C209.5 114.24 196.26 60.5498 196.26 60.5498L260.47 129.72C260.47 129.72 241.13 126.62 231.47 140.79C222.9 153.35 235.71 170.23 235.86 170.43H235.85Z" fill="#01D387" fill-opacity="0.1"/>
<path d="M275.32 60.5498C275.55 60.6698 283.14 64.8998 295.08 98.2898C301.67 116.74 314.91 170.43 314.91 170.43L250.7 101.26C250.7 101.26 270.04 104.36 279.7 90.1898C288.27 77.6298 275.46 60.7498 275.31 60.5498H275.32Z" fill="#01D387" fill-opacity="0.1"/>
<path d="M345.61 170.43C345.38 170.31 337.79 166.08 325.85 132.69C319.26 114.24 306.02 60.5498 306.02 60.5498L370.23 129.72C370.23 129.72 350.89 126.62 341.23 140.79C332.66 153.35 345.47 170.23 345.62 170.43H345.61Z" fill="#01D387" fill-opacity="0.1"/>
<path d="M385.09 60.5498C385.32 60.6698 392.91 64.8998 404.85 98.2898C411.44 116.74 424.68 170.43 424.68 170.43L360.47 101.26C360.47 101.26 379.81 104.36 389.47 90.1898C398.04 77.6298 385.23 60.7498 385.08 60.5498H385.09Z" fill="#01D387" fill-opacity="0.1"/>
<path d="M455.38 170.43C455.15 170.31 447.56 166.08 435.62 132.69C429.03 114.24 415.79 60.5498 415.79 60.5498L480 129.72C480 129.72 460.66 126.62 451 140.79C442.43 153.35 455.24 170.23 455.39 170.43H455.38Z" fill="#01D387" fill-opacity="0.1"/>
<path d="M494.86 60.5498C495.09 60.6698 502.68 64.8998 514.62 98.2898C521.21 116.74 534.45 170.43 534.45 170.43L470.24 101.26C470.24 101.26 489.58 104.36 499.24 90.1898C507.81 77.6298 495 60.7498 494.85 60.5498H494.86Z" fill="#01D387" fill-opacity="0.1"/>
<path d="M565.15 170.43C564.92 170.31 557.33 166.08 545.39 132.69C538.8 114.24 525.56 60.5498 525.56 60.5498L589.77 129.72C589.77 129.72 570.43 126.62 560.77 140.79C552.2 153.35 565.01 170.23 565.16 170.43H565.15Z" fill="#01D387" fill-opacity="0.1"/>
<path d="M604.63 60.5498C604.86 60.6698 612.45 64.8998 624.39 98.2898C630.98 116.74 644.22 170.43 644.22 170.43L580.01 101.26C580.01 101.26 599.35 104.36 609.01 90.1898C617.58 77.6298 604.77 60.7498 604.62 60.5498H604.63Z" fill="#01D387" fill-opacity="0.1"/>
<path d="M674.91 170.43C674.68 170.31 667.09 166.08 655.15 132.69C648.56 114.24 635.32 60.5498 635.32 60.5498L699.53 129.72C699.53 129.72 680.19 126.62 670.53 140.79C661.96 153.35 674.77 170.23 674.92 170.43H674.91Z" fill="#01D387" fill-opacity="0.1"/>
<path d="M714.39 60.5498C714.62 60.6698 722.21 64.8998 734.15 98.2898C740.74 116.74 753.98 170.43 753.98 170.43L689.77 101.26C689.77 101.26 709.11 104.36 718.77 90.1898C727.34 77.6298 714.53 60.7498 714.38 60.5498H714.39Z" fill="#01D387" fill-opacity="0.1"/>
<path d="M784.68 170.43C784.45 170.31 776.86 166.08 764.92 132.69C758.33 114.24 745.09 60.5498 745.09 60.5498L809.3 129.72C809.3 129.72 789.96 126.62 780.3 140.79C771.73 153.35 784.54 170.23 784.69 170.43H784.68Z" fill="#01D387" fill-opacity="0.1"/>
<path d="M824.16 60.5498C824.39 60.6698 831.98 64.8998 843.92 98.2898C850.51 116.74 863.75 170.43 863.75 170.43L799.54 101.26C799.54 101.26 818.88 104.36 828.54 90.1898C837.11 77.6298 824.3 60.7498 824.15 60.5498H824.16Z" fill="#01D387" fill-opacity="0.1"/>
<path d="M36.31 280.31C36.08 280.19 28.49 275.96 16.55 242.57C9.95997 224.12 -3.28003 170.43 -3.28003 170.43L60.93 239.6C60.93 239.6 41.59 236.5 31.93 250.67C23.36 263.23 36.17 280.11 36.32 280.31H36.31Z" fill="#01D387" fill-opacity="0.1"/>
<path d="M75.79 170.43C76.02 170.55 83.61 174.78 95.55 208.17C102.14 226.62 115.38 280.31 115.38 280.31L51.17 211.14C51.17 211.14 70.51 214.24 80.17 200.07C88.74 187.51 75.93 170.63 75.78 170.43H75.79Z" fill="#01D387" fill-opacity="0.1"/>
<path d="M146.08 280.31C145.85 280.19 138.26 275.96 126.32 242.57C119.73 224.12 106.49 170.43 106.49 170.43L170.7 239.6C170.7 239.6 151.36 236.5 141.7 250.67C133.13 263.23 145.94 280.11 146.09 280.31H146.08Z" fill="#01D387" fill-opacity="0.1"/>
<path d="M185.56 170.43C185.79 170.55 193.38 174.78 205.32 208.17C211.91 226.62 225.15 280.31 225.15 280.31L160.94 211.14C160.94 211.14 180.28 214.24 189.94 200.07C198.51 187.51 185.7 170.63 185.55 170.43H185.56Z" fill="#01D387" fill-opacity="0.1"/>
<path d="M255.85 280.31C255.62 280.19 248.03 275.96 236.09 242.57C229.5 224.12 216.26 170.43 216.26 170.43L280.47 239.6C280.47 239.6 261.13 236.5 251.47 250.67C242.9 263.23 255.71 280.11 255.86 280.31H255.85Z" fill="#01D387" fill-opacity="0.1"/>
<path d="M295.32 170.43C295.55 170.55 303.14 174.78 315.08 208.17C321.67 226.62 334.91 280.31 334.91 280.31L270.7 211.14C270.7 211.14 290.04 214.24 299.7 200.07C308.27 187.51 295.46 170.63 295.31 170.43H295.32Z" fill="#01D387" fill-opacity="0.1"/>
<path d="M365.61 280.31C365.38 280.19 357.79 275.96 345.85 242.57C339.26 224.12 326.02 170.43 326.02 170.43L390.23 239.6C390.23 239.6 370.89 236.5 361.23 250.67C352.66 263.23 365.47 280.11 365.62 280.31H365.61Z" fill="#01D387" fill-opacity="0.1"/>
<path d="M405.09 170.43C405.32 170.55 412.91 174.78 424.85 208.17C431.44 226.62 444.68 280.31 444.68 280.31L380.47 211.14C380.47 211.14 399.81 214.24 409.47 200.07C418.04 187.51 405.23 170.63 405.08 170.43H405.09Z" fill="#01D387" fill-opacity="0.1"/>
<path d="M475.38 280.31C475.15 280.19 467.56 275.96 455.62 242.57C449.03 224.12 435.79 170.43 435.79 170.43L500 239.6C500 239.6 480.66 236.5 471 250.67C462.43 263.23 475.24 280.11 475.39 280.31H475.38Z" fill="#01D387" fill-opacity="0.1"/>
<path d="M514.86 170.43C515.09 170.55 522.68 174.78 534.62 208.17C541.21 226.62 554.45 280.31 554.45 280.31L490.24 211.14C490.24 211.14 509.58 214.24 519.24 200.07C527.81 187.51 515 170.63 514.85 170.43H514.86Z" fill="#01D387" fill-opacity="0.1"/>
<path d="M585.15 280.31C584.92 280.19 577.33 275.96 565.39 242.57C558.8 224.12 545.56 170.43 545.56 170.43L609.77 239.6C609.77 239.6 590.43 236.5 580.77 250.67C572.2 263.23 585.01 280.11 585.16 280.31H585.15Z" fill="#01D387" fill-opacity="0.1"/>
<path d="M624.63 170.43C624.86 170.55 632.45 174.78 644.39 208.17C650.98 226.62 664.22 280.31 664.22 280.31L600.01 211.14C600.01 211.14 619.35 214.24 629.01 200.07C637.58 187.51 624.77 170.63 624.62 170.43H624.63Z" fill="#01D387" fill-opacity="0.1"/>
<path d="M694.91 280.31C694.68 280.19 687.09 275.96 675.15 242.57C668.56 224.12 655.32 170.43 655.32 170.43L719.53 239.6C719.53 239.6 700.19 236.5 690.53 250.67C681.96 263.23 694.77 280.11 694.92 280.31H694.91Z" fill="#01D387" fill-opacity="0.1"/>
<path d="M734.39 170.43C734.62 170.55 742.21 174.78 754.15 208.17C760.74 226.62 773.98 280.31 773.98 280.31L709.77 211.14C709.77 211.14 729.11 214.24 738.77 200.07C747.34 187.51 734.53 170.63 734.38 170.43H734.39Z" fill="#01D387" fill-opacity="0.1"/>
<path d="M804.68 280.31C804.45 280.19 796.86 275.96 784.92 242.57C778.33 224.12 765.09 170.43 765.09 170.43L829.3 239.6C829.3 239.6 809.96 236.5 800.3 250.67C791.73 263.23 804.54 280.11 804.69 280.31H804.68Z" fill="#01D387" fill-opacity="0.1"/>
<path d="M844.16 170.43C844.39 170.55 851.98 174.78 863.92 208.17C870.51 226.62 883.75 280.31 883.75 280.31L819.54 211.14C819.54 211.14 838.88 214.24 848.54 200.07C857.11 187.51 844.3 170.63 844.15 170.43H844.16Z" fill="#01D387" fill-opacity="0.1"/>
<path d="M16.31 380.19C16.08 380.07 8.48997 375.84 -3.45003 342.45C-10.04 324 -23.28 270.31 -23.28 270.31L40.93 339.48C40.93 339.48 21.59 336.38 11.93 350.55C3.35997 363.11 16.17 379.99 16.32 380.19H16.31Z" fill="#01D387" fill-opacity="0.1"/>
<path d="M55.79 270.31C56.02 270.43 63.61 274.66 75.55 308.05C82.14 326.5 95.38 380.19 95.38 380.19L31.17 311.02C31.17 311.02 50.51 314.12 60.17 299.95C68.74 287.39 55.93 270.51 55.78 270.31H55.79Z" fill="#01D387" fill-opacity="0.1"/>
<path d="M126.08 380.19C125.85 380.07 118.26 375.84 106.32 342.45C99.73 324 86.49 270.31 86.49 270.31L150.7 339.48C150.7 339.48 131.36 336.38 121.7 350.55C113.13 363.11 125.94 379.99 126.09 380.19H126.08Z" fill="#01D387" fill-opacity="0.1"/>
<path d="M165.56 270.31C165.79 270.43 173.38 274.66 185.32 308.05C191.91 326.5 205.15 380.19 205.15 380.19L140.94 311.02C140.94 311.02 160.28 314.12 169.94 299.95C178.51 287.39 165.7 270.51 165.55 270.31H165.56Z" fill="#01D387" fill-opacity="0.1"/>
<path d="M235.85 380.19C235.62 380.07 228.03 375.84 216.09 342.45C209.5 324 196.26 270.31 196.26 270.31L260.47 339.48C260.47 339.48 241.13 336.38 231.47 350.55C222.9 363.11 235.71 379.99 235.86 380.19H235.85Z" fill="#01D387" fill-opacity="0.1"/>
<path d="M275.32 270.31C275.55 270.43 283.14 274.66 295.08 308.05C301.67 326.5 314.91 380.19 314.91 380.19L250.7 311.02C250.7 311.02 270.04 314.12 279.7 299.95C288.27 287.39 275.46 270.51 275.31 270.31H275.32Z" fill="#01D387" fill-opacity="0.1"/>
<path d="M345.61 380.19C345.38 380.07 337.79 375.84 325.85 342.45C319.26 324 306.02 270.31 306.02 270.31L370.23 339.48C370.23 339.48 350.89 336.38 341.23 350.55C332.66 363.11 345.47 379.99 345.62 380.19H345.61Z" fill="#01D387" fill-opacity="0.1"/>
<path d="M385.09 270.31C385.32 270.43 392.91 274.66 404.85 308.05C411.44 326.5 424.68 380.19 424.68 380.19L360.47 311.02C360.47 311.02 379.81 314.12 389.47 299.95C398.04 287.39 385.23 270.51 385.08 270.31H385.09Z" fill="#01D387" fill-opacity="0.1"/>
<path d="M455.38 380.19C455.15 380.07 447.56 375.84 435.62 342.45C429.03 324 415.79 270.31 415.79 270.31L480 339.48C480 339.48 460.66 336.38 451 350.55C442.43 363.11 455.24 379.99 455.39 380.19H455.38Z" fill="#01D387" fill-opacity="0.1"/>
<path d="M494.86 270.31C495.09 270.43 502.68 274.66 514.62 308.05C521.21 326.5 534.45 380.19 534.45 380.19L470.24 311.02C470.24 311.02 489.58 314.12 499.24 299.95C507.81 287.39 495 270.51 494.85 270.31H494.86Z" fill="#01D387" fill-opacity="0.1"/>
<path d="M565.15 380.19C564.92 380.07 557.33 375.84 545.39 342.45C538.8 324 525.56 270.31 525.56 270.31L589.77 339.48C589.77 339.48 570.43 336.38 560.77 350.55C552.2 363.11 565.01 379.99 565.16 380.19H565.15Z" fill="#01D387" fill-opacity="0.1"/>
<path d="M604.63 270.31C604.86 270.43 612.45 274.66 624.39 308.05C630.98 326.5 644.22 380.19 644.22 380.19L580.01 311.02C580.01 311.02 599.35 314.12 609.01 299.95C617.58 287.39 604.77 270.51 604.62 270.31H604.63Z" fill="#01D387" fill-opacity="0.1"/>
<path d="M674.91 380.19C674.68 380.07 667.09 375.84 655.15 342.45C648.56 324 635.32 270.31 635.32 270.31L699.53 339.48C699.53 339.48 680.19 336.38 670.53 350.55C661.96 363.11 674.77 379.99 674.92 380.19H674.91Z" fill="#01D387" fill-opacity="0.1"/>
<path d="M714.39 270.31C714.62 270.43 722.21 274.66 734.15 308.05C740.74 326.5 753.98 380.19 753.98 380.19L689.77 311.02C689.77 311.02 709.11 314.12 718.77 299.95C727.34 287.39 714.53 270.51 714.38 270.31H714.39Z" fill="#01D387" fill-opacity="0.1"/>
<path d="M784.68 380.19C784.45 380.07 776.86 375.84 764.92 342.45C758.33 324 745.09 270.31 745.09 270.31L809.3 339.48C809.3 339.48 789.96 336.38 780.3 350.55C771.73 363.11 784.54 379.99 784.69 380.19H784.68Z" fill="#01D387" fill-opacity="0.1"/>
<path d="M824.16 270.31C824.39 270.43 831.98 274.66 843.92 308.05C850.51 326.5 863.75 380.19 863.75 380.19L799.54 311.02C799.54 311.02 818.88 314.12 828.54 299.95C837.11 287.39 824.3 270.51 824.15 270.31H824.16Z" fill="#01D387" fill-opacity="0.1"/>
<path d="M36.31 490.069C36.08 489.949 28.49 485.719 16.55 452.329C9.95997 433.879 -3.28003 380.189 -3.28003 380.189L60.93 449.359C60.93 449.359 41.59 446.259 31.93 460.429C23.36 472.989 36.17 489.869 36.32 490.069H36.31Z" fill="#01D387" fill-opacity="0.1"/>
<path d="M75.79 380.189C76.02 380.309 83.61 384.539 95.55 417.929C102.14 436.379 115.38 490.069 115.38 490.069L51.17 420.899C51.17 420.899 70.51 423.999 80.17 409.829C88.74 397.269 75.93 380.389 75.78 380.189H75.79Z" fill="#01D387" fill-opacity="0.1"/>
<path d="M146.08 490.069C145.85 489.949 138.26 485.719 126.32 452.329C119.73 433.879 106.49 380.189 106.49 380.189L170.7 449.359C170.7 449.359 151.36 446.259 141.7 460.429C133.13 472.989 145.94 489.869 146.09 490.069H146.08Z" fill="#01D387" fill-opacity="0.1"/>
<path d="M185.56 380.189C185.79 380.309 193.38 384.539 205.32 417.929C211.91 436.379 225.15 490.069 225.15 490.069L160.94 420.899C160.94 420.899 180.28 423.999 189.94 409.829C198.51 397.269 185.7 380.389 185.55 380.189H185.56Z" fill="#01D387" fill-opacity="0.1"/>
<path d="M255.85 490.069C255.62 489.949 248.03 485.719 236.09 452.329C229.5 433.879 216.26 380.189 216.26 380.189L280.47 449.359C280.47 449.359 261.13 446.259 251.47 460.429C242.9 472.989 255.71 489.869 255.86 490.069H255.85Z" fill="#01D387" fill-opacity="0.1"/>
<path d="M295.32 380.189C295.55 380.309 303.14 384.539 315.08 417.929C321.67 436.379 334.91 490.069 334.91 490.069L270.7 420.899C270.7 420.899 290.04 423.999 299.7 409.829C308.27 397.269 295.46 380.389 295.31 380.189H295.32Z" fill="#01D387" fill-opacity="0.1"/>
<path d="M365.61 490.069C365.38 489.949 357.79 485.719 345.85 452.329C339.26 433.879 326.02 380.189 326.02 380.189L390.23 449.359C390.23 449.359 370.89 446.259 361.23 460.429C352.66 472.989 365.47 489.869 365.62 490.069H365.61Z" fill="#01D387" fill-opacity="0.1"/>
<path d="M405.09 380.189C405.32 380.309 412.91 384.539 424.85 417.929C431.44 436.379 444.68 490.069 444.68 490.069L380.47 420.899C380.47 420.899 399.81 423.999 409.47 409.829C418.04 397.269 405.23 380.389 405.08 380.189H405.09Z" fill="#01D387" fill-opacity="0.1"/>
<path d="M475.38 490.069C475.15 489.949 467.56 485.719 455.62 452.329C449.03 433.879 435.79 380.189 435.79 380.189L500 449.359C500 449.359 480.66 446.259 471 460.429C462.43 472.989 475.24 489.869 475.39 490.069H475.38Z" fill="#01D387" fill-opacity="0.1"/>
<path d="M514.86 380.189C515.09 380.309 522.68 384.539 534.62 417.929C541.21 436.379 554.45 490.069 554.45 490.069L490.24 420.899C490.24 420.899 509.58 423.999 519.24 409.829C527.81 397.269 515 380.389 514.85 380.189H514.86Z" fill="#01D387" fill-opacity="0.1"/>
<path d="M585.15 490.069C584.92 489.949 577.33 485.719 565.39 452.329C558.8 433.879 545.56 380.189 545.56 380.189L609.77 449.359C609.77 449.359 590.43 446.259 580.77 460.429C572.2 472.989 585.01 489.869 585.16 490.069H585.15Z" fill="#01D387" fill-opacity="0.1"/>
<path d="M624.63 380.189C624.86 380.309 632.45 384.539 644.39 417.929C650.98 436.379 664.22 490.069 664.22 490.069L600.01 420.899C600.01 420.899 619.35 423.999 629.01 409.829C637.58 397.269 624.77 380.389 624.62 380.189H624.63Z" fill="#01D387" fill-opacity="0.1"/>
<path d="M694.91 490.069C694.68 489.949 687.09 485.719 675.15 452.329C668.56 433.879 655.32 380.189 655.32 380.189L719.53 449.359C719.53 449.359 700.19 446.259 690.53 460.429C681.96 472.989 694.77 489.869 694.92 490.069H694.91Z" fill="#01D387" fill-opacity="0.1"/>
<path d="M734.39 380.189C734.62 380.309 742.21 384.539 754.15 417.929C760.74 436.379 773.98 490.069 773.98 490.069L709.77 420.899C709.77 420.899 729.11 423.999 738.77 409.829C747.34 397.269 734.53 380.389 734.38 380.189H734.39Z" fill="#01D387" fill-opacity="0.1"/>
<path d="M804.68 490.069C804.45 489.949 796.86 485.719 784.92 452.329C778.33 433.879 765.09 380.189 765.09 380.189L829.3 449.359C829.3 449.359 809.96 446.259 800.3 460.429C791.73 472.989 804.54 489.869 804.69 490.069H804.68Z" fill="#01D387" fill-opacity="0.1"/>
<path d="M844.16 380.189C844.39 380.309 851.98 384.539 863.92 417.929C870.51 436.379 883.75 490.069 883.75 490.069L819.54 420.899C819.54 420.899 838.88 423.999 848.54 409.829C857.11 397.269 844.3 380.389 844.15 380.189H844.16Z" fill="#01D387" fill-opacity="0.1"/>
<path d="M16.31 589.94C16.08 589.82 8.48997 585.59 -3.45003 552.2C-10.04 533.75 -23.28 480.06 -23.28 480.06L40.93 549.23C40.93 549.23 21.59 546.13 11.93 560.3C3.35997 572.86 16.17 589.74 16.32 589.94H16.31Z" fill="#01D387" fill-opacity="0.1"/>
<path d="M55.79 480.069C56.02 480.189 63.61 484.419 75.55 517.809C82.14 536.259 95.38 589.949 95.38 589.949L31.17 520.779C31.17 520.779 50.51 523.879 60.17 509.709C68.74 497.149 55.93 480.269 55.78 480.069H55.79Z" fill="#01D387" fill-opacity="0.1"/>
<path d="M126.08 589.94C125.85 589.82 118.26 585.59 106.32 552.2C99.73 533.75 86.49 480.06 86.49 480.06L150.7 549.23C150.7 549.23 131.36 546.13 121.7 560.3C113.13 572.86 125.94 589.74 126.09 589.94H126.08Z" fill="#01D387" fill-opacity="0.1"/>
<path d="M165.56 480.069C165.79 480.189 173.38 484.419 185.32 517.809C191.91 536.259 205.15 589.949 205.15 589.949L140.94 520.779C140.94 520.779 160.28 523.879 169.94 509.709C178.51 497.149 165.7 480.269 165.55 480.069H165.56Z" fill="#01D387" fill-opacity="0.1"/>
<path d="M235.85 589.94C235.62 589.82 228.03 585.59 216.09 552.2C209.5 533.75 196.26 480.06 196.26 480.06L260.47 549.23C260.47 549.23 241.13 546.13 231.47 560.3C222.9 572.86 235.71 589.74 235.86 589.94H235.85Z" fill="#01D387" fill-opacity="0.1"/>
<path d="M275.32 480.069C275.55 480.189 283.14 484.419 295.08 517.809C301.67 536.259 314.91 589.949 314.91 589.949L250.7 520.779C250.7 520.779 270.04 523.879 279.7 509.709C288.27 497.149 275.46 480.269 275.31 480.069H275.32Z" fill="#01D387" fill-opacity="0.1"/>
<path d="M345.61 589.94C345.38 589.82 337.79 585.59 325.85 552.2C319.26 533.75 306.02 480.06 306.02 480.06L370.23 549.23C370.23 549.23 350.89 546.13 341.23 560.3C332.66 572.86 345.47 589.74 345.62 589.94H345.61Z" fill="#01D387" fill-opacity="0.1"/>
<path d="M385.09 480.069C385.32 480.189 392.91 484.419 404.85 517.809C411.44 536.259 424.68 589.949 424.68 589.949L360.47 520.779C360.47 520.779 379.81 523.879 389.47 509.709C398.04 497.149 385.23 480.269 385.08 480.069H385.09Z" fill="#01D387" fill-opacity="0.1"/>
<path d="M455.38 589.94C455.15 589.82 447.56 585.59 435.62 552.2C429.03 533.75 415.79 480.06 415.79 480.06L480 549.23C480 549.23 460.66 546.13 451 560.3C442.43 572.86 455.24 589.74 455.39 589.94H455.38Z" fill="#01D387" fill-opacity="0.1"/>
<path d="M494.86 480.069C495.09 480.189 502.68 484.419 514.62 517.809C521.21 536.259 534.45 589.949 534.45 589.949L470.24 520.779C470.24 520.779 489.58 523.879 499.24 509.709C507.81 497.149 495 480.269 494.85 480.069H494.86Z" fill="#01D387" fill-opacity="0.1"/>
<path d="M565.15 589.94C564.92 589.82 557.33 585.59 545.39 552.2C538.8 533.75 525.56 480.06 525.56 480.06L589.77 549.23C589.77 549.23 570.43 546.13 560.77 560.3C552.2 572.86 565.01 589.74 565.16 589.94H565.15Z" fill="#01D387" fill-opacity="0.1"/>
<path d="M604.63 480.069C604.86 480.189 612.45 484.419 624.39 517.809C630.98 536.259 644.22 589.949 644.22 589.949L580.01 520.779C580.01 520.779 599.35 523.879 609.01 509.709C617.58 497.149 604.77 480.269 604.62 480.069H604.63Z" fill="#01D387" fill-opacity="0.1"/>
<path d="M674.91 589.94C674.68 589.82 667.09 585.59 655.15 552.2C648.56 533.75 635.32 480.06 635.32 480.06L699.53 549.23C699.53 549.23 680.19 546.13 670.53 560.3C661.96 572.86 674.77 589.74 674.92 589.94H674.91Z" fill="#01D387" fill-opacity="0.1"/>
<path d="M714.39 480.069C714.62 480.189 722.21 484.419 734.15 517.809C740.74 536.259 753.98 589.949 753.98 589.949L689.77 520.779C689.77 520.779 709.11 523.879 718.77 509.709C727.34 497.149 714.53 480.269 714.38 480.069H714.39Z" fill="#01D387" fill-opacity="0.1"/>
<path d="M784.68 589.94C784.45 589.82 776.86 585.59 764.92 552.2C758.33 533.75 745.09 480.06 745.09 480.06L809.3 549.23C809.3 549.23 789.96 546.13 780.3 560.3C771.73 572.86 784.54 589.74 784.69 589.94H784.68Z" fill="#01D387" fill-opacity="0.1"/>
<path d="M824.16 480.069C824.39 480.189 831.98 484.419 843.92 517.809C850.51 536.259 863.75 589.949 863.75 589.949L799.54 520.779C799.54 520.779 818.88 523.879 828.54 509.709C837.11 497.149 824.3 480.269 824.15 480.069H824.16Z" fill="#01D387" fill-opacity="0.1"/>
<path d="M36.31 699.819C36.08 699.699 28.49 695.469 16.55 662.079C9.95997 643.629 -3.28003 589.939 -3.28003 589.939L60.93 659.109C60.93 659.109 41.59 656.009 31.93 670.179C23.36 682.739 36.17 699.619 36.32 699.819H36.31Z" fill="#01D387" fill-opacity="0.1"/>
<path d="M75.79 589.939C76.02 590.059 83.61 594.289 95.55 627.679C102.14 646.129 115.38 699.819 115.38 699.819L51.17 630.649C51.17 630.649 70.51 633.749 80.17 619.579C88.74 607.019 75.93 590.139 75.78 589.939H75.79Z" fill="#01D387" fill-opacity="0.1"/>
<path d="M146.08 699.819C145.85 699.699 138.26 695.469 126.32 662.079C119.73 643.629 106.49 589.939 106.49 589.939L170.7 659.109C170.7 659.109 151.36 656.009 141.7 670.179C133.13 682.739 145.94 699.619 146.09 699.819H146.08Z" fill="#01D387" fill-opacity="0.1"/>
<path d="M185.56 589.939C185.79 590.059 193.38 594.289 205.32 627.679C211.91 646.129 225.15 699.819 225.15 699.819L160.94 630.649C160.94 630.649 180.28 633.749 189.94 619.579C198.51 607.019 185.7 590.139 185.55 589.939H185.56Z" fill="#01D387" fill-opacity="0.1"/>
<path d="M255.85 699.819C255.62 699.699 248.03 695.469 236.09 662.079C229.5 643.629 216.26 589.939 216.26 589.939L280.47 659.109C280.47 659.109 261.13 656.009 251.47 670.179C242.9 682.739 255.71 699.619 255.86 699.819H255.85Z" fill="#01D387" fill-opacity="0.1"/>
<path d="M295.32 589.939C295.55 590.059 303.14 594.289 315.08 627.679C321.67 646.129 334.91 699.819 334.91 699.819L270.7 630.649C270.7 630.649 290.04 633.749 299.7 619.579C308.27 607.019 295.46 590.139 295.31 589.939H295.32Z" fill="#01D387" fill-opacity="0.1"/>
<path d="M365.61 699.819C365.38 699.699 357.79 695.469 345.85 662.079C339.26 643.629 326.02 589.939 326.02 589.939L390.23 659.109C390.23 659.109 370.89 656.009 361.23 670.179C352.66 682.739 365.47 699.619 365.62 699.819H365.61Z" fill="#01D387" fill-opacity="0.1"/>
<path d="M405.09 589.939C405.32 590.059 412.91 594.289 424.85 627.679C431.44 646.129 444.68 699.819 444.68 699.819L380.47 630.649C380.47 630.649 399.81 633.749 409.47 619.579C418.04 607.019 405.23 590.139 405.08 589.939H405.09Z" fill="#01D387" fill-opacity="0.1"/>
<path d="M475.38 699.819C475.15 699.699 467.56 695.469 455.62 662.079C449.03 643.629 435.79 589.939 435.79 589.939L500 659.109C500 659.109 480.66 656.009 471 670.179C462.43 682.739 475.24 699.619 475.39 699.819H475.38Z" fill="#01D387" fill-opacity="0.1"/>
<path d="M514.86 589.939C515.09 590.059 522.68 594.289 534.62 627.679C541.21 646.129 554.45 699.819 554.45 699.819L490.24 630.649C490.24 630.649 509.58 633.749 519.24 619.579C527.81 607.019 515 590.139 514.85 589.939H514.86Z" fill="#01D387" fill-opacity="0.1"/>
<path d="M585.15 699.819C584.92 699.699 577.33 695.469 565.39 662.079C558.8 643.629 545.56 589.939 545.56 589.939L609.77 659.109C609.77 659.109 590.43 656.009 580.77 670.179C572.2 682.739 585.01 699.619 585.16 699.819H585.15Z" fill="#01D387" fill-opacity="0.1"/>
<path d="M624.63 589.939C624.86 590.059 632.45 594.289 644.39 627.679C650.98 646.129 664.22 699.819 664.22 699.819L600.01 630.649C600.01 630.649 619.35 633.749 629.01 619.579C637.58 607.019 624.77 590.139 624.62 589.939H624.63Z" fill="#01D387" fill-opacity="0.1"/>
<path d="M694.91 699.819C694.68 699.699 687.09 695.469 675.15 662.079C668.56 643.629 655.32 589.939 655.32 589.939L719.53 659.109C719.53 659.109 700.19 656.009 690.53 670.179C681.96 682.739 694.77 699.619 694.92 699.819H694.91Z" fill="#01D387" fill-opacity="0.1"/>
<path d="M734.39 589.939C734.62 590.059 742.21 594.289 754.15 627.679C760.74 646.129 773.98 699.819 773.98 699.819L709.77 630.649C709.77 630.649 729.11 633.749 738.77 619.579C747.34 607.019 734.53 590.139 734.38 589.939H734.39Z" fill="#01D387" fill-opacity="0.1"/>
<path d="M804.68 699.819C804.45 699.699 796.86 695.469 784.92 662.079C778.33 643.629 765.09 589.939 765.09 589.939L829.3 659.109C829.3 659.109 809.96 656.009 800.3 670.179C791.73 682.739 804.54 699.619 804.69 699.819H804.68Z" fill="#01D387" fill-opacity="0.1"/>
<path d="M844.16 589.939C844.39 590.059 851.98 594.289 863.92 627.679C870.51 646.129 883.75 699.819 883.75 699.819L819.54 630.649C819.54 630.649 838.88 633.749 848.54 619.579C857.11 607.019 844.3 590.139 844.15 589.939H844.16Z" fill="#01D387" fill-opacity="0.1"/>
<path d="M16.31 799.7C16.08 799.58 8.48997 795.35 -3.45003 761.96C-10.04 743.51 -23.28 689.82 -23.28 689.82L40.93 758.99C40.93 758.99 21.59 755.89 11.93 770.06C3.35997 782.62 16.17 799.5 16.32 799.7H16.31Z" fill="#01D387" fill-opacity="0.1"/>
<path d="M55.79 689.82C56.02 689.94 63.61 694.17 75.55 727.56C82.14 746.01 95.38 799.7 95.38 799.7L31.17 730.53C31.17 730.53 50.51 733.63 60.17 719.46C68.74 706.9 55.93 690.02 55.78 689.82H55.79Z" fill="#01D387" fill-opacity="0.1"/>
<path d="M126.08 799.7C125.85 799.58 118.26 795.35 106.32 761.96C99.73 743.51 86.49 689.82 86.49 689.82L150.7 758.99C150.7 758.99 131.36 755.89 121.7 770.06C113.13 782.62 125.94 799.5 126.09 799.7H126.08Z" fill="#01D387" fill-opacity="0.1"/>
<path d="M165.56 689.82C165.79 689.94 173.38 694.17 185.32 727.56C191.91 746.01 205.15 799.7 205.15 799.7L140.94 730.53C140.94 730.53 160.28 733.63 169.94 719.46C178.51 706.9 165.7 690.02 165.55 689.82H165.56Z" fill="#01D387" fill-opacity="0.1"/>
<path d="M235.85 799.7C235.62 799.58 228.03 795.35 216.09 761.96C209.5 743.51 196.26 689.82 196.26 689.82L260.47 758.99C260.47 758.99 241.13 755.89 231.47 770.06C222.9 782.62 235.71 799.5 235.86 799.7H235.85Z" fill="#01D387" fill-opacity="0.1"/>
<path d="M275.32 689.82C275.55 689.94 283.14 694.17 295.08 727.56C301.67 746.01 314.91 799.7 314.91 799.7L250.7 730.53C250.7 730.53 270.04 733.63 279.7 719.46C288.27 706.9 275.46 690.02 275.31 689.82H275.32Z" fill="#01D387" fill-opacity="0.1"/>
<path d="M345.61 799.7C345.38 799.58 337.79 795.35 325.85 761.96C319.26 743.51 306.02 689.82 306.02 689.82L370.23 758.99C370.23 758.99 350.89 755.89 341.23 770.06C332.66 782.62 345.47 799.5 345.62 799.7H345.61Z" fill="#01D387" fill-opacity="0.1"/>
<path d="M385.09 689.82C385.32 689.94 392.91 694.17 404.85 727.56C411.44 746.01 424.68 799.7 424.68 799.7L360.47 730.53C360.47 730.53 379.81 733.63 389.47 719.46C398.04 706.9 385.23 690.02 385.08 689.82H385.09Z" fill="#01D387" fill-opacity="0.1"/>
<path d="M455.38 799.7C455.15 799.58 447.56 795.35 435.62 761.96C429.03 743.51 415.79 689.82 415.79 689.82L480 758.99C480 758.99 460.66 755.89 451 770.06C442.43 782.62 455.24 799.5 455.39 799.7H455.38Z" fill="#01D387" fill-opacity="0.1"/>
<path d="M494.86 689.82C495.09 689.94 502.68 694.17 514.62 727.56C521.21 746.01 534.45 799.7 534.45 799.7L470.24 730.53C470.24 730.53 489.58 733.63 499.24 719.46C507.81 706.9 495 690.02 494.85 689.82H494.86Z" fill="#01D387" fill-opacity="0.1"/>
<path d="M565.15 799.7C564.92 799.58 557.33 795.35 545.39 761.96C538.8 743.51 525.56 689.82 525.56 689.82L589.77 758.99C589.77 758.99 570.43 755.89 560.77 770.06C552.2 782.62 565.01 799.5 565.16 799.7H565.15Z" fill="#01D387" fill-opacity="0.1"/>
<path d="M604.63 689.82C604.86 689.94 612.45 694.17 624.39 727.56C630.98 746.01 644.22 799.7 644.22 799.7L580.01 730.53C580.01 730.53 599.35 733.63 609.01 719.46C617.58 706.9 604.77 690.02 604.62 689.82H604.63Z" fill="#01D387" fill-opacity="0.1"/>
<path d="M674.91 799.7C674.68 799.58 667.09 795.35 655.15 761.96C648.56 743.51 635.32 689.82 635.32 689.82L699.53 758.99C699.53 758.99 680.19 755.89 670.53 770.06C661.96 782.62 674.77 799.5 674.92 799.7H674.91Z" fill="#01D387" fill-opacity="0.1"/>
<path d="M714.39 689.82C714.62 689.94 722.21 694.17 734.15 727.56C740.74 746.01 753.98 799.7 753.98 799.7L689.77 730.53C689.77 730.53 709.11 733.63 718.77 719.46C727.34 706.9 714.53 690.02 714.38 689.82H714.39Z" fill="#01D387" fill-opacity="0.1"/>
<path d="M784.68 799.7C784.45 799.58 776.86 795.35 764.92 761.96C758.33 743.51 745.09 689.82 745.09 689.82L809.3 758.99C809.3 758.99 789.96 755.89 780.3 770.06C771.73 782.62 784.54 799.5 784.69 799.7H784.68Z" fill="#01D387" fill-opacity="0.1"/>
<path d="M824.16 689.82C824.39 689.94 831.98 694.17 843.92 727.56C850.51 746.01 863.75 799.7 863.75 799.7L799.54 730.53C799.54 730.53 818.88 733.63 828.54 719.46C837.11 706.9 824.3 690.02 824.15 689.82H824.16Z" fill="#01D387" fill-opacity="0.1"/>
<path d="M36.31 909.58C36.08 909.46 28.49 905.23 16.55 871.84C9.95997 853.39 -3.28003 799.7 -3.28003 799.7L60.93 868.87C60.93 868.87 41.59 865.77 31.93 879.94C23.36 892.5 36.17 909.38 36.32 909.58H36.31Z" fill="#01D387" fill-opacity="0.1"/>
<path d="M75.79 799.7C76.02 799.82 83.61 804.05 95.55 837.44C102.14 855.89 115.38 909.58 115.38 909.58L51.17 840.41C51.17 840.41 70.51 843.51 80.17 829.34C88.74 816.78 75.93 799.9 75.78 799.7H75.79Z" fill="#01D387" fill-opacity="0.1"/>
<path d="M146.08 909.58C145.85 909.46 138.26 905.23 126.32 871.84C119.73 853.39 106.49 799.7 106.49 799.7L170.7 868.87C170.7 868.87 151.36 865.77 141.7 879.94C133.13 892.5 145.94 909.38 146.09 909.58H146.08Z" fill="#01D387" fill-opacity="0.1"/>
<path d="M185.56 799.7C185.79 799.82 193.38 804.05 205.32 837.44C211.91 855.89 225.15 909.58 225.15 909.58L160.94 840.41C160.94 840.41 180.28 843.51 189.94 829.34C198.51 816.78 185.7 799.9 185.55 799.7H185.56Z" fill="#01D387" fill-opacity="0.1"/>
<path d="M255.85 909.58C255.62 909.46 248.03 905.23 236.09 871.84C229.5 853.39 216.26 799.7 216.26 799.7L280.47 868.87C280.47 868.87 261.13 865.77 251.47 879.94C242.9 892.5 255.71 909.38 255.86 909.58H255.85Z" fill="#01D387" fill-opacity="0.1"/>
<path d="M295.32 799.7C295.55 799.82 303.14 804.05 315.08 837.44C321.67 855.89 334.91 909.58 334.91 909.58L270.7 840.41C270.7 840.41 290.04 843.51 299.7 829.34C308.27 816.78 295.46 799.9 295.31 799.7H295.32Z" fill="#01D387" fill-opacity="0.1"/>
<path d="M365.61 909.58C365.38 909.46 357.79 905.23 345.85 871.84C339.26 853.39 326.02 799.7 326.02 799.7L390.23 868.87C390.23 868.87 370.89 865.77 361.23 879.94C352.66 892.5 365.47 909.38 365.62 909.58H365.61Z" fill="#01D387" fill-opacity="0.1"/>
<path d="M405.09 799.7C405.32 799.82 412.91 804.05 424.85 837.44C431.44 855.89 444.68 909.58 444.68 909.58L380.47 840.41C380.47 840.41 399.81 843.51 409.47 829.34C418.04 816.78 405.23 799.9 405.08 799.7H405.09Z" fill="#01D387" fill-opacity="0.1"/>
<path d="M475.38 909.58C475.15 909.46 467.56 905.23 455.62 871.84C449.03 853.39 435.79 799.7 435.79 799.7L500 868.87C500 868.87 480.66 865.77 471 879.94C462.43 892.5 475.24 909.38 475.39 909.58H475.38Z" fill="#01D387" fill-opacity="0.1"/>
<path d="M514.86 799.7C515.09 799.82 522.68 804.05 534.62 837.44C541.21 855.89 554.45 909.58 554.45 909.58L490.24 840.41C490.24 840.41 509.58 843.51 519.24 829.34C527.81 816.78 515 799.9 514.85 799.7H514.86Z" fill="#01D387" fill-opacity="0.1"/>
<path d="M585.15 909.58C584.92 909.46 577.33 905.23 565.39 871.84C558.8 853.39 545.56 799.7 545.56 799.7L609.77 868.87C609.77 868.87 590.43 865.77 580.77 879.94C572.2 892.5 585.01 909.38 585.16 909.58H585.15Z" fill="#01D387" fill-opacity="0.1"/>
<path d="M624.63 799.7C624.86 799.82 632.45 804.05 644.39 837.44C650.98 855.89 664.22 909.58 664.22 909.58L600.01 840.41C600.01 840.41 619.35 843.51 629.01 829.34C637.58 816.78 624.77 799.9 624.62 799.7H624.63Z" fill="#01D387" fill-opacity="0.1"/>
<path d="M694.91 909.58C694.68 909.46 687.09 905.23 675.15 871.84C668.56 853.39 655.32 799.7 655.32 799.7L719.53 868.87C719.53 868.87 700.19 865.77 690.53 879.94C681.96 892.5 694.77 909.38 694.92 909.58H694.91Z" fill="#01D387" fill-opacity="0.1"/>
<path d="M734.39 799.7C734.62 799.82 742.21 804.05 754.15 837.44C760.74 855.89 773.98 909.58 773.98 909.58L709.77 840.41C709.77 840.41 729.11 843.51 738.77 829.34C747.34 816.78 734.53 799.9 734.38 799.7H734.39Z" fill="#01D387" fill-opacity="0.1"/>
<path d="M804.68 909.58C804.45 909.46 796.86 905.23 784.92 871.84C778.33 853.39 765.09 799.7 765.09 799.7L829.3 868.87C829.3 868.87 809.96 865.77 800.3 879.94C791.73 892.5 804.54 909.38 804.69 909.58H804.68Z" fill="#01D387" fill-opacity="0.1"/>
<path d="M844.16 799.7C844.39 799.82 851.98 804.05 863.92 837.44C870.51 855.89 883.75 909.58 883.75 909.58L819.54 840.41C819.54 840.41 838.88 843.51 848.54 829.34C857.11 816.78 844.3 799.9 844.15 799.7H844.16Z" fill="#01D387" fill-opacity="0.1"/>
<path d="M36.31 1119.34C36.08 1119.22 28.49 1114.99 16.55 1081.6C9.95997 1063.15 -3.28003 1009.46 -3.28003 1009.46L60.93 1078.63C60.93 1078.63 41.59 1075.53 31.93 1089.7C23.36 1102.26 36.17 1119.14 36.32 1119.34H36.31Z" fill="#01D387" fill-opacity="0.1"/>
<path d="M75.79 1009.46C76.02 1009.58 83.61 1013.81 95.55 1047.2C102.14 1065.65 115.38 1119.34 115.38 1119.34L51.17 1050.17C51.17 1050.17 70.51 1053.27 80.17 1039.1C88.74 1026.54 75.93 1009.66 75.78 1009.46H75.79Z" fill="#01D387" fill-opacity="0.1"/>
<path d="M146.08 1119.34C145.85 1119.22 138.26 1114.99 126.32 1081.6C119.73 1063.15 106.49 1009.46 106.49 1009.46L170.7 1078.63C170.7 1078.63 151.36 1075.53 141.7 1089.7C133.13 1102.26 145.94 1119.14 146.09 1119.34H146.08Z" fill="#01D387" fill-opacity="0.1"/>
<path d="M185.56 1009.46C185.79 1009.58 193.38 1013.81 205.32 1047.2C211.91 1065.65 225.15 1119.34 225.15 1119.34L160.94 1050.17C160.94 1050.17 180.28 1053.27 189.94 1039.1C198.51 1026.54 185.7 1009.66 185.55 1009.46H185.56Z" fill="#01D387" fill-opacity="0.1"/>
<path d="M255.85 1119.34C255.62 1119.22 248.03 1114.99 236.09 1081.6C229.5 1063.15 216.26 1009.46 216.26 1009.46L280.47 1078.63C280.47 1078.63 261.13 1075.53 251.47 1089.7C242.9 1102.26 255.71 1119.14 255.86 1119.34H255.85Z" fill="#01D387" fill-opacity="0.1"/>
<path d="M295.32 1009.46C295.55 1009.58 303.14 1013.81 315.08 1047.2C321.67 1065.65 334.91 1119.34 334.91 1119.34L270.7 1050.17C270.7 1050.17 290.04 1053.27 299.7 1039.1C308.27 1026.54 295.46 1009.66 295.31 1009.46H295.32Z" fill="#01D387" fill-opacity="0.1"/>
<path d="M365.61 1119.34C365.38 1119.22 357.79 1114.99 345.85 1081.6C339.26 1063.15 326.02 1009.46 326.02 1009.46L390.23 1078.63C390.23 1078.63 370.89 1075.53 361.23 1089.7C352.66 1102.26 365.47 1119.14 365.62 1119.34H365.61Z" fill="#01D387" fill-opacity="0.1"/>
<path d="M405.09 1009.46C405.32 1009.58 412.91 1013.81 424.85 1047.2C431.44 1065.65 444.68 1119.34 444.68 1119.34L380.47 1050.17C380.47 1050.17 399.81 1053.27 409.47 1039.1C418.04 1026.54 405.23 1009.66 405.08 1009.46H405.09Z" fill="#01D387" fill-opacity="0.1"/>
<path d="M475.38 1119.34C475.15 1119.22 467.56 1114.99 455.62 1081.6C449.03 1063.15 435.79 1009.46 435.79 1009.46L500 1078.63C500 1078.63 480.66 1075.53 471 1089.7C462.43 1102.26 475.24 1119.14 475.39 1119.34H475.38Z" fill="#01D387" fill-opacity="0.1"/>
<path d="M514.86 1009.46C515.09 1009.58 522.68 1013.81 534.62 1047.2C541.21 1065.65 554.45 1119.34 554.45 1119.34L490.24 1050.17C490.24 1050.17 509.58 1053.27 519.24 1039.1C527.81 1026.54 515 1009.66 514.85 1009.46H514.86Z" fill="#01D387" fill-opacity="0.1"/>
<path d="M585.15 1119.34C584.92 1119.22 577.33 1114.99 565.39 1081.6C558.8 1063.15 545.56 1009.46 545.56 1009.46L609.77 1078.63C609.77 1078.63 590.43 1075.53 580.77 1089.7C572.2 1102.26 585.01 1119.14 585.16 1119.34H585.15Z" fill="#01D387" fill-opacity="0.1"/>
<path d="M624.63 1009.46C624.86 1009.58 632.45 1013.81 644.39 1047.2C650.98 1065.65 664.22 1119.34 664.22 1119.34L600.01 1050.17C600.01 1050.17 619.35 1053.27 629.01 1039.1C637.58 1026.54 624.77 1009.66 624.62 1009.46H624.63Z" fill="#01D387" fill-opacity="0.1"/>
<path d="M694.91 1119.34C694.68 1119.22 687.09 1114.99 675.15 1081.6C668.56 1063.15 655.32 1009.46 655.32 1009.46L719.53 1078.63C719.53 1078.63 700.19 1075.53 690.53 1089.7C681.96 1102.26 694.77 1119.14 694.92 1119.34H694.91Z" fill="#01D387" fill-opacity="0.1"/>
<path d="M734.39 1009.46C734.62 1009.58 742.21 1013.81 754.15 1047.2C760.74 1065.65 773.98 1119.34 773.98 1119.34L709.77 1050.17C709.77 1050.17 729.11 1053.27 738.77 1039.1C747.34 1026.54 734.53 1009.66 734.38 1009.46H734.39Z" fill="#01D387" fill-opacity="0.1"/>
<path d="M804.68 1119.34C804.45 1119.22 796.86 1114.99 784.92 1081.6C778.33 1063.15 765.09 1009.46 765.09 1009.46L829.3 1078.63C829.3 1078.63 809.96 1075.53 800.3 1089.7C791.73 1102.26 804.54 1119.14 804.69 1119.34H804.68Z" fill="#01D387" fill-opacity="0.1"/>
<path d="M844.16 1009.46C844.39 1009.58 851.98 1013.81 863.92 1047.2C870.51 1065.65 883.75 1119.34 883.75 1119.34L819.54 1050.17C819.54 1050.17 838.88 1053.27 848.54 1039.1C857.11 1026.54 844.3 1009.66 844.15 1009.46H844.16Z" fill="#01D387" fill-opacity="0.1"/>
<path d="M16.31 1009.46C16.08 1009.34 8.48997 1005.11 -3.45003 971.72C-10.04 953.27 -23.28 899.58 -23.28 899.58L40.93 968.75C40.93 968.75 21.59 965.65 11.93 979.82C3.35997 992.38 16.17 1009.26 16.32 1009.46H16.31Z" fill="#01D387" fill-opacity="0.1"/>
<path d="M55.79 899.58C56.02 899.7 63.61 903.93 75.55 937.32C82.14 955.77 95.38 1009.46 95.38 1009.46L31.17 940.29C31.17 940.29 50.51 943.39 60.17 929.22C68.74 916.66 55.93 899.78 55.78 899.58H55.79Z" fill="#01D387" fill-opacity="0.1"/>
<path d="M126.08 1009.46C125.85 1009.34 118.26 1005.11 106.32 971.72C99.73 953.27 86.49 899.58 86.49 899.58L150.7 968.75C150.7 968.75 131.36 965.65 121.7 979.82C113.13 992.38 125.94 1009.26 126.09 1009.46H126.08Z" fill="#01D387" fill-opacity="0.1"/>
<path d="M165.56 899.58C165.79 899.7 173.38 903.93 185.32 937.32C191.91 955.77 205.15 1009.46 205.15 1009.46L140.94 940.29C140.94 940.29 160.28 943.39 169.94 929.22C178.51 916.66 165.7 899.78 165.55 899.58H165.56Z" fill="#01D387" fill-opacity="0.1"/>
<path d="M235.85 1009.46C235.62 1009.34 228.03 1005.11 216.09 971.72C209.5 953.27 196.26 899.58 196.26 899.58L260.47 968.75C260.47 968.75 241.13 965.65 231.47 979.82C222.9 992.38 235.71 1009.26 235.86 1009.46H235.85Z" fill="#01D387" fill-opacity="0.1"/>
<path d="M275.32 899.58C275.55 899.7 283.14 903.93 295.08 937.32C301.67 955.77 314.91 1009.46 314.91 1009.46L250.7 940.29C250.7 940.29 270.04 943.39 279.7 929.22C288.27 916.66 275.46 899.78 275.31 899.58H275.32Z" fill="#01D387" fill-opacity="0.1"/>
<path d="M345.61 1009.46C345.38 1009.34 337.79 1005.11 325.85 971.72C319.26 953.27 306.02 899.58 306.02 899.58L370.23 968.75C370.23 968.75 350.89 965.65 341.23 979.82C332.66 992.38 345.47 1009.26 345.62 1009.46H345.61Z" fill="#01D387" fill-opacity="0.1"/>
<path d="M385.09 899.58C385.32 899.7 392.91 903.93 404.85 937.32C411.44 955.77 424.68 1009.46 424.68 1009.46L360.47 940.29C360.47 940.29 379.81 943.39 389.47 929.22C398.04 916.66 385.23 899.78 385.08 899.58H385.09Z" fill="#01D387" fill-opacity="0.1"/>
<path d="M455.38 1009.46C455.15 1009.34 447.56 1005.11 435.62 971.72C429.03 953.27 415.79 899.58 415.79 899.58L480 968.75C480 968.75 460.66 965.65 451 979.82C442.43 992.38 455.24 1009.26 455.39 1009.46H455.38Z" fill="#01D387" fill-opacity="0.1"/>
<path d="M494.86 899.58C495.09 899.7 502.68 903.93 514.62 937.32C521.21 955.77 534.45 1009.46 534.45 1009.46L470.24 940.29C470.24 940.29 489.58 943.39 499.24 929.22C507.81 916.66 495 899.78 494.85 899.58H494.86Z" fill="#01D387" fill-opacity="0.1"/>
<path d="M565.15 1009.46C564.92 1009.34 557.33 1005.11 545.39 971.72C538.8 953.27 525.56 899.58 525.56 899.58L589.77 968.75C589.77 968.75 570.43 965.65 560.77 979.82C552.2 992.38 565.01 1009.26 565.16 1009.46H565.15Z" fill="#01D387" fill-opacity="0.1"/>
<path d="M604.63 899.58C604.86 899.7 612.45 903.93 624.39 937.32C630.98 955.77 644.22 1009.46 644.22 1009.46L580.01 940.29C580.01 940.29 599.35 943.39 609.01 929.22C617.58 916.66 604.77 899.78 604.62 899.58H604.63Z" fill="#01D387" fill-opacity="0.1"/>
<path d="M674.91 1009.46C674.68 1009.34 667.09 1005.11 655.15 971.72C648.56 953.27 635.32 899.58 635.32 899.58L699.53 968.75C699.53 968.75 680.19 965.65 670.53 979.82C661.96 992.38 674.77 1009.26 674.92 1009.46H674.91Z" fill="#01D387" fill-opacity="0.1"/>
<path d="M714.39 899.58C714.62 899.7 722.21 903.93 734.15 937.32C740.74 955.77 753.98 1009.46 753.98 1009.46L689.77 940.29C689.77 940.29 709.11 943.39 718.77 929.22C727.34 916.66 714.53 899.78 714.38 899.58H714.39Z" fill="#01D387" fill-opacity="0.1"/>
<path d="M784.68 1009.46C784.45 1009.34 776.86 1005.11 764.92 971.72C758.33 953.27 745.09 899.58 745.09 899.58L809.3 968.75C809.3 968.75 789.96 965.65 780.3 979.82C771.73 992.38 784.54 1009.26 784.69 1009.46H784.68Z" fill="#01D387" fill-opacity="0.1"/>
<path d="M824.16 899.58C824.39 899.7 831.98 903.93 843.92 937.32C850.51 955.77 863.75 1009.46 863.75 1009.46L799.54 940.29C799.54 940.29 818.88 943.39 828.54 929.22C837.11 916.66 824.3 899.78 824.15 899.58H824.16Z" fill="#01D387" fill-opacity="0.1"/>
</g>
</svg>
