<svg width="75" height="75" viewBox="0 0 75 75" fill="none" xmlns="http://www.w3.org/2000/svg">
<rect width="75" height="75" rx="10" fill="#00D588"/>
<mask id="mask0_37_106" style="mask-type:luminance" maskUnits="userSpaceOnUse" x="19" y="19" width="38" height="38">
<path d="M57 19H19V57H57V19Z" fill="white"/>
</mask>
<g mask="url(#mask0_37_106)">
<path d="M19.5709 27.6074C19.2625 27.6074 19.0142 27.359 19.0142 27.0506V25.6908C19.0142 24.6475 19.8633 23.7983 20.9067 23.7983H26.7123C27.0187 23.7983 27.269 24.0467 27.269 24.3551C27.269 24.6635 27.0207 24.9118 26.7123 24.9118H20.9067C20.4761 24.9118 20.1276 25.2623 20.1276 25.6908V27.0506C20.1276 27.359 19.8793 27.6074 19.5709 27.6074Z" fill="#004862"/>
<path d="M51.1965 48.5329H20.9067C19.8633 48.5329 19.0142 47.6838 19.0142 46.6404V29.648C19.0142 29.3396 19.2625 29.0913 19.5709 29.0913C19.8793 29.0913 20.1276 29.3396 20.1276 29.648V46.6404C20.1276 47.071 20.4781 47.4194 20.9067 47.4194H51.1965C51.5029 47.4194 51.7532 47.6678 51.7532 47.9762C51.7532 48.2846 51.5049 48.5329 51.1965 48.5329Z" fill="#004862"/>
<path d="M55.0938 48.5329H53.7941C53.4877 48.5329 53.2374 48.2846 53.2374 47.9762C53.2374 47.6677 53.4857 47.4194 53.7941 47.4194H55.0938C55.5244 47.4194 55.8728 47.069 55.8728 46.6404V25.6908C55.8728 25.2603 55.5224 24.9118 55.0938 24.9118H49.2882C48.9818 24.9118 48.7314 24.6635 48.7314 24.3551C48.7314 24.0467 48.9798 23.7983 49.2882 23.7983H55.0938C56.1372 23.7983 56.9863 24.6475 56.9863 25.6908V46.6404C56.9863 47.6838 56.1372 48.5329 55.0938 48.5329Z" fill="#004862"/>
<path d="M56.4294 43.5823H19.5709C19.2625 43.5823 19.0142 43.334 19.0142 43.0256C19.0142 42.7172 19.2625 42.4689 19.5709 42.4689H56.4294C56.7358 42.4689 56.9861 42.7172 56.9861 43.0256C56.9861 43.334 56.7378 43.5823 56.4294 43.5823Z" fill="#004862"/>
<path d="M39.6552 46.0576H36.3448C36.0384 46.0576 35.7881 45.8092 35.7881 45.5008C35.7881 45.1924 36.0364 44.9441 36.3448 44.9441H39.6552C39.9616 44.9441 40.2119 45.1924 40.2119 45.5008C40.2119 45.8092 39.9636 46.0576 39.6552 46.0576Z" fill="#004862"/>
<path d="M50.4296 39.6752H25.5709C25.2645 39.6752 25.0142 39.4269 25.0142 39.1185C25.0142 38.8101 25.2625 38.5618 25.5709 38.5618H50.4316C50.738 38.5618 50.9883 38.8101 50.9883 39.1185C50.9883 39.4269 50.74 39.6752 50.4316 39.6752H50.4296Z" fill="#004862"/>
<path d="M49.2882 39.6752C48.9818 39.6752 48.7315 39.4269 48.7315 39.1184V20.4539C48.7315 20.2696 48.5813 20.1194 48.397 20.1194H27.6037C27.4194 20.1194 27.2692 20.2696 27.2692 20.4539V39.1184C27.2692 39.4269 27.0209 39.6752 26.7125 39.6752C26.4041 39.6752 26.1558 39.4269 26.1558 39.1184V20.4539C26.1558 19.6568 26.8046 19.006 27.6037 19.006H48.399C49.1961 19.006 49.8469 19.6548 49.8469 20.4539V39.1184C49.8469 39.4269 49.5986 39.6752 49.2902 39.6752H49.2882Z" fill="#004862"/>
<path d="M49.2882 22.5086H26.7125C26.4061 22.5086 26.1558 22.2603 26.1558 21.9519C26.1558 21.6435 26.4041 21.3951 26.7125 21.3951H49.2882C49.5946 21.3951 49.8449 21.6435 49.8449 21.9519C49.8449 22.2603 49.5966 22.5086 49.2882 22.5086Z" fill="#004862"/>
<path d="M38.3674 31.2661H30.3128C29.7601 31.2661 29.3115 30.8175 29.3115 30.2648V24.6794C29.3115 24.1267 29.7601 23.6781 30.3128 23.6781H38.3674C38.9202 23.6781 39.3688 24.1267 39.3688 24.6794V30.2648C39.3688 30.8175 38.9202 31.2661 38.3674 31.2661ZM30.425 30.1526H38.2573V24.7896H30.425V30.1526Z" fill="#004862"/>
<path d="M44.2375 37.0477H33.3893C32.9186 37.0477 32.5361 36.6652 32.5361 36.1946V34.4043C32.5361 33.9336 32.9186 33.5511 33.3893 33.5511H44.2375C44.7081 33.5511 45.0907 33.9336 45.0907 34.4043V36.1946C45.0907 36.6652 44.7081 37.0477 44.2375 37.0477ZM33.6476 35.9343H43.9772V34.6626H33.6476V35.9343Z" fill="#004862"/>
<path d="M38.8123 29.2174C38.7222 29.2174 38.6301 29.1954 38.544 29.1473L36.301 27.9117L34.2984 28.901C34 29.0492 33.6335 28.9651 33.4292 28.7007L32.2657 27.2047L30.1209 28.3002C29.8465 28.4404 29.5121 28.3322 29.3719 28.0579C29.2317 27.7835 29.3398 27.4491 29.6142 27.3089L32.0594 26.0592C32.3598 25.905 32.7303 25.9871 32.9366 26.2555L34.1021 27.7555L35.9966 26.8202C36.2029 26.7181 36.4472 26.7241 36.6495 26.8343L39.0787 28.174C39.347 28.3222 39.4451 28.6607 39.2969 28.931C39.1948 29.1153 39.0046 29.2194 38.8083 29.2194L38.8123 29.2174Z" fill="#004862"/>
<path d="M46.1317 27.0165H41.7359C41.4295 27.0165 41.1792 26.7682 41.1792 26.4598C41.1792 26.1514 41.4275 25.9031 41.7359 25.9031H46.1317C46.4381 25.9031 46.6884 26.1514 46.6884 26.4598C46.6884 26.7682 46.4401 27.0165 46.1317 27.0165Z" fill="#004862"/>
<path d="M46.1317 24.7896H41.7359C41.4295 24.7896 41.1792 24.5413 41.1792 24.2329C41.1792 23.9245 41.4275 23.6761 41.7359 23.6761H46.1317C46.4381 23.6761 46.6884 23.9245 46.6884 24.2329C46.6884 24.5413 46.4401 24.7896 46.1317 24.7896Z" fill="#004862"/>
<path d="M44.85 29.2435H41.7379C41.4315 29.2435 41.1812 28.9951 41.1812 28.6867C41.1812 28.3783 41.4295 28.13 41.7379 28.13H44.85C45.1564 28.13 45.4067 28.3783 45.4067 28.6867C45.4067 28.9951 45.1584 29.2435 44.85 29.2435Z" fill="#004862"/>
<path d="M45.3206 56.994H30.6793C30.2087 56.994 29.8262 56.6115 29.8262 56.1409V53.8899C29.8262 52.8466 30.6753 51.9974 31.7187 51.9974H44.2812C45.3246 51.9974 46.1737 52.8466 46.1737 53.8899V56.1409C46.1737 56.6115 45.7912 56.994 45.3206 56.994ZM30.9396 55.8805H45.0602V53.8879C45.0602 53.4574 44.7098 53.1089 44.2812 53.1089H31.7187C31.2881 53.1089 30.9396 53.4594 30.9396 53.8879V55.8805Z" fill="#004862"/>
<path d="M41.8624 53.1088C41.5881 53.1088 41.3478 52.9045 41.3117 52.6242L40.7089 48.0461C40.6689 47.7417 40.8831 47.4614 41.1875 47.4213C41.4919 47.3813 41.7723 47.5955 41.8124 47.8999L42.4152 52.478C42.4552 52.7824 42.2409 53.0627 41.9365 53.1028C41.9125 53.1068 41.8865 53.1068 41.8624 53.1068V53.1088Z" fill="#004862"/>
<path d="M34.1362 53.1089C34.1121 53.1089 34.0881 53.1089 34.0621 53.1049C33.7577 53.0648 33.5434 52.7844 33.5834 52.48L34.1862 47.902C34.2263 47.5976 34.5066 47.3833 34.811 47.4234C35.1154 47.4634 35.3297 47.7438 35.2897 48.0482L34.6869 52.6262C34.6508 52.9066 34.4105 53.1109 34.1362 53.1109V53.1089Z" fill="#004862"/>
</g>
</svg>
