<svg width="75" height="75" viewBox="0 0 75 75" fill="none" xmlns="http://www.w3.org/2000/svg">
<rect width="75" height="75" rx="10" fill="#00D588"/>
<path d="M24.0523 24.1631H19.0467C18.4691 24.1631 18 23.694 18 23.1164V19.3399C18 17.4984 19.4984 16 21.3399 16C22.2325 16 23.0707 16.3475 23.7005 16.9772C24.3303 17.607 24.6777 18.4474 24.6777 19.3378V23.5333C24.6777 23.8808 24.3976 24.1609 24.0501 24.1609L24.0523 24.1631ZM19.2552 22.9079H23.4247V19.3399C23.4247 18.784 23.2075 18.2585 22.8145 17.8654C22.4214 17.4724 21.898 17.2552 21.3399 17.2552C20.1912 17.2552 19.2552 18.1912 19.2552 19.3399V22.9079Z" fill="#004862"/>
<path d="M54.3485 58.82H26.7321C26.3846 58.82 26.1045 58.5398 26.1045 58.1924C26.1045 57.8449 26.3846 57.5648 26.7321 57.5648C27.8809 57.5648 28.8168 56.6288 28.8168 55.48V51.7014C28.8168 51.1259 29.2859 50.6569 29.8614 50.6569H56.6417C57.2172 50.6569 57.6863 51.1259 57.6863 51.7014V55.48C57.6863 57.3215 56.1879 58.82 54.3463 58.82H54.3485ZM29.338 57.5648H54.3485C55.4973 57.5648 56.4333 56.6288 56.4333 55.48V51.9121H30.072V55.48C30.072 56.2683 29.7984 56.9936 29.3402 57.5648H29.338Z" fill="#004862"/>
<path d="M53.7554 29.9895H51.6359C51.2884 29.9895 51.0083 29.7093 51.0083 29.3619V25.9134C51.0083 25.5659 51.2884 25.2858 51.6359 25.2858C51.9834 25.2858 52.2635 25.5659 52.2635 25.9134V28.7343H53.7576C54.105 28.7343 54.3852 29.0144 54.3852 29.3619C54.3852 29.7093 54.105 29.9895 53.7576 29.9895H53.7554Z" fill="#004862"/>
<path d="M51.6361 35.4729C48.2679 35.4729 45.5273 32.7323 45.5273 29.3641C45.5273 25.9959 48.2679 23.2554 51.6361 23.2554C52.6915 23.2554 53.7317 23.529 54.6438 24.0458C54.9456 24.2174 55.052 24.5996 54.8805 24.9015C54.7089 25.2033 54.3267 25.3097 54.0249 25.1382C53.2996 24.7277 52.4743 24.5106 51.6361 24.5106C48.9585 24.5106 46.7804 26.6887 46.7804 29.3663C46.7804 32.0439 48.9585 34.222 51.6361 34.222C54.3137 34.222 56.4918 32.0439 56.4918 29.3663C56.4918 28.4672 56.2443 27.5877 55.7752 26.8277C55.5928 26.5323 55.6862 26.1458 55.9815 25.9655C56.2768 25.7831 56.6634 25.8765 56.8436 26.1718C57.4343 27.1317 57.7448 28.2371 57.7448 29.3685C57.7448 32.7366 55.0043 35.4772 51.6361 35.4772V35.4729Z" fill="#004862"/>
<path d="M51.6361 23.883C51.2886 23.883 51.0085 23.6028 51.0085 23.2554V19.3399C51.0085 18.1912 50.0725 17.2552 48.9237 17.2552H21.4745C21.1271 17.2552 20.8469 16.9751 20.8469 16.6276C20.8469 16.2801 21.1271 16 21.4745 16H48.9237C50.7653 16 52.2637 17.4984 52.2637 19.3399V23.2554C52.2637 23.6028 51.9835 23.883 51.6361 23.883Z" fill="#004862"/>
<path d="M26.7322 58.8198C26.7322 58.8198 26.7278 58.8198 26.7235 58.8198C24.9037 58.7981 23.4248 57.2997 23.4248 55.4799V49.3625C23.4248 49.015 23.7049 48.7349 24.0524 48.7349C24.3999 48.7349 24.68 49.015 24.68 49.3625V55.4799C24.68 56.6157 25.6029 57.5516 26.7387 57.5646C27.0861 57.569 27.3619 57.8535 27.3576 58.1988C27.3533 58.5419 27.0731 58.8177 26.73 58.8177L26.7322 58.8198Z" fill="#004862"/>
<path d="M34.6845 39.449H27.6789C27.3314 39.449 27.0513 39.1689 27.0513 38.8214C27.0513 38.474 27.3314 38.1938 27.6789 38.1938H34.6845C35.032 38.1938 35.3121 38.474 35.3121 38.8214C35.3121 39.1689 35.032 39.449 34.6845 39.449Z" fill="#004862"/>
<path d="M34.6845 43.4687H27.6789C27.3314 43.4687 27.0513 43.1886 27.0513 42.8411C27.0513 42.4936 27.3314 42.2135 27.6789 42.2135H34.6845C35.032 42.2135 35.3121 42.4936 35.3121 42.8411C35.3121 43.1886 35.032 43.4687 34.6845 43.4687Z" fill="#004862"/>
<path d="M37.1927 47.4905H27.6789C27.3314 47.4905 27.0513 47.2104 27.0513 46.8629C27.0513 46.5155 27.3314 46.2354 27.6789 46.2354H37.1927C37.5402 46.2354 37.8203 46.5155 37.8203 46.8629C37.8203 47.2104 37.5402 47.4905 37.1927 47.4905Z" fill="#004862"/>
<path d="M41.3752 21.6766H27.6789C27.3314 21.6766 27.0513 21.3964 27.0513 21.049C27.0513 20.7015 27.3314 20.4214 27.6789 20.4214H41.3752C41.7227 20.4214 42.0028 20.7015 42.0028 21.049C42.0028 21.3964 41.7227 21.6766 41.3752 21.6766Z" fill="#004862"/>
<path d="M41.3752 25.6962H27.6789C27.3314 25.6962 27.0513 25.4161 27.0513 25.0686C27.0513 24.7212 27.3314 24.441 27.6789 24.441H41.3752C41.7227 24.441 42.0028 24.7212 42.0028 25.0686C42.0028 25.4161 41.7227 25.6962 41.3752 25.6962Z" fill="#004862"/>
<path d="M42.978 47.4905C42.7261 47.4905 42.4763 47.408 42.2679 47.2452L37.7791 43.7575C37.4947 43.536 37.3318 43.2038 37.3318 42.8433C37.3318 42.4828 37.4947 42.1505 37.7791 41.929L42.2679 38.4414C42.6197 38.1678 43.0866 38.12 43.4883 38.3155C43.8879 38.5109 44.1376 38.9105 44.1376 39.3557V40.4632H45.0475C45.395 40.4632 45.6751 40.7433 45.6751 41.0908C45.6751 41.4383 45.395 41.7184 45.0475 41.7184H43.51C43.1626 41.7184 42.8824 41.4383 42.8824 41.0908V39.5511L38.6456 42.8433L42.8824 46.1355V44.5958C42.8824 44.2483 43.1626 43.9682 43.51 43.9682H54.1227V41.7162H47.7794C47.432 41.7162 47.1518 41.4361 47.1518 41.0886C47.1518 40.7412 47.432 40.461 47.7794 40.461H54.227C54.8611 40.461 55.3757 40.9779 55.3757 41.6098V44.0703C55.3757 44.7044 54.8589 45.219 54.227 45.219H44.1355V46.3266C44.1355 46.7717 43.8857 47.1713 43.4861 47.3668C43.3233 47.4471 43.1495 47.4862 42.9758 47.4862L42.978 47.4905Z" fill="#004862"/>
<path d="M32.7671 36.6261C32.5934 36.6261 32.4197 36.587 32.2568 36.5066C31.8572 36.3112 31.6075 35.9116 31.6075 35.4664V34.3589H21.5182C20.8841 34.3589 20.3694 33.8421 20.3694 33.2101V30.7497C20.3694 30.4435 20.4888 30.1547 20.706 29.9375C20.9231 29.7203 21.212 29.6009 21.5182 29.6009H31.6075V28.4934C31.6075 28.0482 31.8572 27.6486 32.2568 27.4532C32.6564 27.2577 33.1254 27.3055 33.4773 27.5791L37.966 31.0667C38.2505 31.2882 38.4133 31.6205 38.4133 31.981C38.4133 32.3415 38.2505 32.6737 37.966 32.8952L33.4773 36.3828C33.2688 36.5457 33.019 36.6282 32.7671 36.6282V36.6261ZM21.6202 33.1037H32.2329C32.5804 33.1037 32.8605 33.3839 32.8605 33.7313V35.271L37.0973 31.9788L32.8605 28.6866V30.2263C32.8605 30.5738 32.5804 30.8539 32.2329 30.8539H21.6224V33.1059L21.6202 33.1037Z" fill="#004862"/>
<path d="M24.0524 30.6171C23.7049 30.6171 23.4248 30.3369 23.4248 29.9895V23.618C23.4248 23.2705 23.7049 22.9904 24.0524 22.9904C24.3999 22.9904 24.68 23.2705 24.68 23.618V29.9895C24.68 30.3369 24.3999 30.6171 24.0524 30.6171Z" fill="#004862"/>
<path d="M24.0524 47.256C23.7049 47.256 23.4248 46.9759 23.4248 46.6284V33.8333C23.4248 33.4858 23.7049 33.2057 24.0524 33.2057C24.3999 33.2057 24.68 33.4858 24.68 33.8333V46.6284C24.68 46.9759 24.3999 47.256 24.0524 47.256Z" fill="#004862"/>
<path d="M51.6359 51.7448C51.2884 51.7448 51.0083 51.4646 51.0083 51.1172V44.9324C51.0083 44.5849 51.2884 44.3048 51.6359 44.3048C51.9834 44.3048 52.2635 44.5849 52.2635 44.9324V51.1172C52.2635 51.4646 51.9834 51.7448 51.6359 51.7448Z" fill="#004862"/>
<path d="M51.6359 41.3862C51.2884 41.3862 51.0083 41.106 51.0083 40.7586V34.93C51.0083 34.5825 51.2884 34.3024 51.6359 34.3024C51.9834 34.3024 52.2635 34.5825 52.2635 34.93V40.7586C52.2635 41.106 51.9834 41.3862 51.6359 41.3862Z" fill="#004862"/>
</svg>
