<svg width="75" height="75" viewBox="0 0 75 75" fill="none" xmlns="http://www.w3.org/2000/svg">
<rect width="75" height="75" rx="10" fill="#00D588"/>
<path d="M53.5749 19H27.2262C25.2506 19 23.6405 20.6101 23.6405 22.5856V50.0656H19.4488C19.2036 50.0656 19 50.2691 19 50.5143V53.3644C19 55.3469 20.6101 56.95 22.5856 56.95H47.5834C47.6019 56.95 47.6134 56.9431 47.6319 56.9384C49.5242 56.8366 51.0256 55.2752 51.0256 53.3574V26.4072H56.5706C56.8158 26.4072 57.0194 26.2037 57.0194 25.9585V22.4422C57.0194 20.5453 55.4741 19 53.5749 19ZM22.5856 56.0594C21.1005 56.0594 19.8976 54.8495 19.8976 53.3713V50.9701H44.1411V53.5147C44.1411 54.521 44.5784 55.4301 45.2677 56.0594H22.5856ZM50.1257 53.3713C50.1257 54.8333 48.9575 56.0177 47.5093 56.0524C46.1375 56.0108 45.0364 54.8911 45.0364 53.5147V50.5213C45.0364 50.2761 44.8328 50.0725 44.5876 50.0725H24.5311V22.5856C24.5311 21.1005 25.741 19.8976 27.2192 19.8976H51.2523C50.5583 20.5268 50.1257 21.4359 50.1257 22.4422V53.3713ZM56.1195 25.5074H51.0256V22.4422C51.0256 21.0403 52.1684 19.8976 53.5702 19.8976C54.9721 19.8976 56.1149 21.0403 56.1149 22.4422V25.5074H56.1218H56.1195Z" fill="#004862"/>
<path d="M48.1826 35.302H26.4791C26.2338 35.302 26.0303 35.5056 26.0303 35.7508V48.127C26.0303 48.3723 26.2338 48.5758 26.4791 48.5758H48.1826C48.4278 48.5758 48.6314 48.3723 48.6314 48.127V35.7508C48.6314 35.4986 48.4348 35.302 48.1826 35.302ZM26.9278 40.2664H39.5493V43.6068H26.9278V40.2664ZM40.4469 40.2664H47.7338V43.6068H40.4469V40.2664ZM47.7338 39.3688H40.4469V36.2019H47.7338V39.3688ZM39.5493 36.2019V39.3688H26.9278V36.2019H39.5493ZM26.9278 44.5067H39.5493V47.6736H26.9278V44.5067ZM40.4469 47.6736V44.5067H47.7338V47.6736H40.4469Z" fill="#004862"/>
<path d="M32.1534 33.6387C35.5308 33.6387 38.2791 30.8905 38.2791 27.513C38.2791 24.1356 35.5308 21.3943 32.1534 21.3943C28.776 21.3943 26.0347 24.1425 26.0347 27.52C26.0347 30.8974 28.776 33.6387 32.1534 33.6387ZM32.1534 22.2942C35.0335 22.2942 37.3792 24.6352 37.3792 27.52C37.3792 30.4047 35.0381 32.7457 32.1534 32.7457C29.2687 32.7457 26.9276 30.4047 26.9276 27.52C26.9276 24.6352 29.2756 22.2942 32.1534 22.2942Z" fill="#004862"/>
<path d="M32.1535 29.7639C31.6562 29.7639 31.256 29.3637 31.256 28.8663C31.256 28.6211 31.0524 28.4175 30.8072 28.4175C30.562 28.4175 30.3584 28.6211 30.3584 28.8663C30.3584 29.6991 30.9321 30.4 31.7047 30.5967V30.939C31.7047 31.1843 31.9083 31.3878 32.1535 31.3878C32.3987 31.3878 32.6023 31.1843 32.6023 30.939V30.5967C33.375 30.3931 33.9487 29.6991 33.9487 28.8663C33.9487 27.8785 33.1413 27.0712 32.1535 27.0712C31.6562 27.0712 31.256 26.671 31.256 26.1736C31.256 25.6762 31.6562 25.276 32.1535 25.276C32.6509 25.276 33.0511 25.6762 33.0511 26.1736C33.0511 26.4188 33.2547 26.6224 33.4999 26.6224C33.7451 26.6224 33.9487 26.4188 33.9487 26.1736C33.9487 25.3408 33.375 24.6399 32.6023 24.4432V24.0962C32.6023 23.851 32.3987 23.6475 32.1535 23.6475C31.9083 23.6475 31.7047 23.851 31.7047 24.0962V24.4386C30.9321 24.6422 30.3584 25.3362 30.3584 26.169C30.3584 27.1568 31.1657 27.9641 32.1535 27.9641C32.6509 27.9641 33.0511 28.3643 33.0511 28.8617C33.0511 29.359 32.6509 29.7662 32.1535 29.7662V29.7639Z" fill="#004862"/>
<path d="M48.1825 24.0106H40.5069C40.2617 24.0106 40.0581 24.2142 40.0581 24.4594C40.0581 24.7046 40.2617 24.9082 40.5069 24.9082H48.1825C48.4277 24.9082 48.6313 24.7046 48.6313 24.4594C48.6313 24.2142 48.4346 24.0106 48.1825 24.0106Z" fill="#004862"/>
<path d="M48.1825 26.472H40.5069C40.2617 26.472 40.0581 26.6756 40.0581 26.9208C40.0581 27.166 40.2617 27.3696 40.5069 27.3696H48.1825C48.4277 27.3696 48.6313 27.166 48.6313 26.9208C48.6313 26.6756 48.4346 26.472 48.1825 26.472Z" fill="#004862"/>
<path d="M48.1825 28.9264H44.2244C43.9792 28.9264 43.7756 29.13 43.7756 29.3752C43.7756 29.6204 43.9792 29.824 44.2244 29.824H48.1825C48.4277 29.824 48.6313 29.6204 48.6313 29.3752C48.6313 29.13 48.4347 28.9264 48.1825 28.9264Z" fill="#004862"/>
</svg>
