<svg width="75" height="75" viewBox="0 0 75 75" fill="none" xmlns="http://www.w3.org/2000/svg">
<rect width="75" height="75" rx="10" fill="#00D588"/>
<g clip-path="url(#clip0_219_19)">
<path fill-rule="evenodd" clip-rule="evenodd" d="M44.9636 40.5332C44.6559 40.5332 44.3927 40.3125 44.3401 40.0088C44.2874 39.707 44.4595 39.4094 44.747 39.3041C45.0365 39.1988 45.3584 39.3162 45.5123 39.5835C45.6216 39.786 45.8322 39.9136 46.063 39.9176C46.2938 39.9197 46.5084 39.7961 46.6218 39.5957C46.7352 39.3952 46.7291 39.1482 46.6097 38.9517C46.3809 38.567 46.0225 38.2754 45.5973 38.1276V38C45.5973 37.6497 45.3139 37.3662 44.9636 37.3662C44.6134 37.3662 44.3299 37.6497 44.3299 38V38.1175C43.4573 38.4253 42.935 39.3162 43.0909 40.2275C43.2468 41.1387 44.0384 41.8029 44.9616 41.8029C45.2694 41.8029 45.5326 42.0236 45.5852 42.3273C45.6378 42.629 45.4657 42.9267 45.1783 43.032C44.8908 43.1373 44.5668 43.0198 44.4129 42.7525C44.2328 42.461 43.8542 42.3658 43.5586 42.5379C43.263 42.71 43.1557 43.0846 43.3176 43.3864C43.5464 43.7731 43.9068 44.0647 44.3299 44.2105V44.3381C44.3299 44.6884 44.6134 44.9719 44.9636 44.9719C45.3139 44.9719 45.5973 44.6884 45.5973 44.3381V44.2206C46.47 43.9128 46.9923 43.0219 46.8364 42.1106C46.6785 41.1994 45.8889 40.5352 44.9636 40.5373V40.5332Z" fill="#004761"/>
<path d="M21.217 52.5593V52.5674H25.333V55.2079C25.3351 55.698 25.6205 56.1414 26.0639 56.35C26.5073 56.5586 27.0317 56.4897 27.4083 56.1779L28.2465 55.4854L29.7082 56.7064C30.1779 57.0992 30.8623 57.0992 31.332 56.7064L32.8018 55.4833L34.2697 56.7044C34.7394 57.0992 35.4237 57.0992 35.8934 56.7044L37.3633 55.4833L38.8311 56.7044C39.3009 57.0992 39.9852 57.0992 40.4529 56.7044L41.9227 55.4833L43.3906 56.7024C43.8603 57.0972 44.5446 57.0972 45.0143 56.7024L46.4822 55.4833L47.3244 56.188C47.703 56.5019 48.2294 56.5707 48.6748 56.3601C49.1202 56.1495 49.4037 55.702 49.4017 55.21V50.8199L50.1022 51.5205C50.1953 51.9235 50.3978 52.2941 50.6893 52.5877L53.1897 55.0946C53.6088 55.5117 54.1757 55.7425 54.7669 55.7385H54.7709C55.6739 55.7425 56.4898 55.1998 56.836 54.3656C57.1823 53.5313 56.9899 52.5695 56.3481 51.9336L53.8477 49.4267C53.5541 49.1352 53.1857 48.9306 52.7828 48.8375L50.7177 46.7741C54.4774 41.7097 53.9145 34.6467 49.4017 30.2405V26.6037C49.4017 25.2044 48.2679 24.0705 46.8689 24.0705H43.0687V20.7941C43.0687 20.3041 42.7832 19.8586 42.3398 19.652C41.8964 19.4435 41.372 19.5103 40.9955 19.8242L40.1573 20.5207L38.6955 19.2957C38.2258 18.9028 37.5415 18.9028 37.0718 19.2957L35.6019 20.5187L34.134 19.2957C33.6643 18.9028 32.98 18.9028 32.5103 19.2957L31.0404 20.5167L29.5726 19.2957C29.1029 18.9028 28.4186 18.9028 27.9509 19.2957L26.481 20.5167L25.0111 19.2957C24.5414 18.9008 23.8571 18.9008 23.3874 19.2957L21.9195 20.5207L21.0773 19.8201C20.7007 19.5042 20.1743 19.4354 19.7289 19.648C19.2815 19.8525 18.996 20.3021 19 20.7941V50.2489C19 50.8969 19.2693 51.5165 19.7411 51.964C20.1399 52.3427 20.6663 52.5573 21.217 52.5593ZM23.2112 51.3018C23.355 51.0062 23.4319 50.6802 23.4339 50.3521V26.387C23.4339 26.0853 23.5595 25.7998 23.7781 25.5912C23.9482 25.4231 24.177 25.332 24.4159 25.334H24.4483C24.9484 25.3664 25.3351 25.7836 25.3351 26.2837V51.3018H23.2133H23.2112ZM55.4472 52.8266C55.7266 53.1 55.8116 53.5171 55.6618 53.8796C55.512 54.2421 55.1556 54.4749 54.7649 54.4688C54.5098 54.4729 54.2648 54.3757 54.0846 54.1955L51.5842 51.6886C51.2076 51.3099 51.2076 50.6964 51.5842 50.3177C51.7644 50.1355 52.0114 50.0342 52.2665 50.0342C52.5216 50.0342 52.7686 50.1355 52.9488 50.3177L55.4492 52.8266H55.4472ZM51.2036 49.0501C51.0153 49.1493 50.8412 49.2769 50.6873 49.4247C50.5395 49.5786 50.414 49.7528 50.3148 49.9411L49.017 48.6451C49.3288 48.3616 49.6244 48.066 49.9078 47.7541L51.2036 49.0501ZM51.9304 39.2676C51.9304 45.5632 46.8264 50.668 40.5318 50.668C34.2373 50.668 29.1332 45.5632 29.1332 39.2676C29.1332 32.9721 34.2373 27.8672 40.5318 27.8672C46.8243 27.8753 51.9223 32.9741 51.9304 39.2676ZM48.1302 26.5996V29.1571C44.8362 26.6563 40.5237 25.9375 36.598 27.2334H29.1312C28.781 27.2334 28.4975 27.5169 28.4975 27.8672C28.4975 28.2175 28.781 28.501 29.1312 28.501H33.8911C33.0205 29.0356 32.2167 29.6735 31.5 30.4004H29.1312C28.781 30.4004 28.4975 30.6839 28.4975 31.0342C28.4975 31.3845 28.781 31.668 29.1312 31.668H30.4209C27.0114 36.1614 27.0114 42.3759 30.4209 46.8693H29.1312C28.781 46.8693 28.4975 47.1527 28.4975 47.5031C28.4975 47.8534 28.781 48.1369 29.1312 48.1369H31.5C32.2188 48.8638 33.0205 49.5017 33.8911 50.0363H29.1312C28.781 50.0363 28.4975 50.3197 28.4975 50.6701C28.4975 51.0204 28.781 51.3039 29.1312 51.3039H36.596C40.4812 52.5877 44.7471 51.8972 48.031 49.4531L48.1302 49.5523V55.212L47.2819 54.5033C46.8102 54.1246 46.136 54.1266 45.6662 54.5093L44.1984 55.7365L42.7306 54.5154C42.2608 54.1226 41.5765 54.1226 41.1068 54.5154L39.6369 55.7365L38.1691 54.5154C37.6994 54.1226 37.0151 54.1226 36.5474 54.5154L35.0775 55.7365L33.6097 54.5154C33.14 54.1226 32.4577 54.1226 31.9879 54.5154L30.5181 55.7365L29.0563 54.5154C28.5866 54.1226 27.9043 54.1226 27.4346 54.5154L26.5964 55.21V26.2837C26.5923 25.9537 26.5174 25.6297 26.3737 25.334H46.8608C47.5593 25.334 48.1282 25.901 48.1282 26.6016L48.1302 26.5996ZM21.1158 21.5008C21.5895 21.8795 22.2617 21.8775 22.7314 21.4947L24.1993 20.2676L25.6671 21.4887C26.1368 21.8815 26.8211 21.8815 27.2908 21.4887L28.7607 20.2676L30.2286 21.4887C30.6983 21.8815 31.3826 21.8815 31.8503 21.4887L33.3201 20.2676L34.788 21.4887C35.2577 21.8815 35.94 21.8815 36.4097 21.4887L37.8796 20.2676L39.3414 21.4887C39.8111 21.8815 40.4934 21.8815 40.9631 21.4887L41.8013 20.7941V24.0664H24.3835V24.0725C23.8328 24.0745 23.3044 24.2892 22.9075 24.6698C22.4358 25.1153 22.1686 25.737 22.1665 26.385V50.3501C22.1665 50.8503 21.7798 51.2674 21.2798 51.2998H21.2595C21.0166 51.3079 20.7837 51.2168 20.6096 51.0467C20.391 50.8381 20.2654 50.5506 20.2654 50.2468V20.7921L21.1137 21.5008H21.1158Z" fill="#004761"/>
<path d="M40.5296 29.135C34.9336 29.135 30.3984 33.6729 30.3984 39.2678C30.3984 44.8627 34.9356 49.4006 40.5296 49.4006C46.1236 49.4006 50.6608 44.8627 50.6608 39.2678C50.6547 33.6729 46.1216 29.1411 40.5296 29.135ZM40.5296 48.135C35.6341 48.135 31.6638 44.1661 31.6638 39.2678C31.6638 34.3695 35.6321 30.4006 40.5296 30.4006C45.4272 30.4006 49.3954 34.3695 49.3954 39.2678C49.3893 44.1621 45.4231 48.1289 40.5296 48.135Z" fill="#004761"/>
<path fill-rule="evenodd" clip-rule="evenodd" d="M41.1636 43.7002H35.4643C35.114 43.7002 34.8306 43.9837 34.8306 44.334C34.8306 44.6843 35.114 44.9678 35.4643 44.9678H41.1636C41.5138 44.9678 41.7973 44.6843 41.7973 44.334C41.7973 43.9837 41.5138 43.7002 41.1636 43.7002Z" fill="#004761"/>
<path fill-rule="evenodd" clip-rule="evenodd" d="M41.1635 41.167H34.8305C34.4802 41.167 34.1968 41.4505 34.1968 41.8008C34.1968 42.1511 34.4802 42.4346 34.8305 42.4346H41.1635C41.5137 42.4346 41.7972 42.1511 41.7972 41.8008C41.7972 41.4505 41.5137 41.167 41.1635 41.167Z" fill="#004761"/>
<path fill-rule="evenodd" clip-rule="evenodd" d="M41.1634 38.6338H34.1967C33.8464 38.6338 33.563 38.9173 33.563 39.2676C33.563 39.6179 33.8464 39.9014 34.1967 39.9014H41.1634C41.5137 39.9014 41.7971 39.6179 41.7971 39.2676C41.7971 38.9173 41.5137 38.6338 41.1634 38.6338Z" fill="#004761"/>
<path fill-rule="evenodd" clip-rule="evenodd" d="M41.7972 36.1006H34.8305C34.4802 36.1006 34.1968 36.3841 34.1968 36.7344C34.1968 37.0847 34.4802 37.3682 34.8305 37.3682H41.7972C42.1474 37.3682 42.4309 37.0847 42.4309 36.7344C42.4309 36.3841 42.1474 36.1006 41.7972 36.1006Z" fill="#004761"/>
<path fill-rule="evenodd" clip-rule="evenodd" d="M36.0976 34.833H44.9634C45.3136 34.833 45.5971 34.5495 45.5971 34.1992C45.5971 33.8489 45.3136 33.5654 44.9634 33.5654H36.0976C35.7473 33.5654 35.4639 33.8489 35.4639 34.1992C35.4639 34.5495 35.7473 34.833 36.0976 34.833Z" fill="#004761"/>
</g>
<defs>
<clipPath id="clip0_219_19">
<rect width="38" height="38" fill="white" transform="translate(19 19)"/>
</clipPath>
</defs>
</svg>
